<svg width="803" height="808" viewBox="0 0 803 808" fill="none" xmlns="http://www.w3.org/2000/svg">
<g clip-path="url(#clip0_329_14)">
<path d="M511.47 649.483C503.3 630.311 519 594.281 539.113 579.118C563.97 560.379 608.626 575.528 612.393 577.885C613.817 574.571 636.411 524.418 682.414 522.548C718.01 521.101 734.445 533.702 748.307 580.971C749.484 580.448 767.155 581.594 778.528 593.612C792.169 608.025 790.888 641.085 778.476 662.199H525.9C516.921 659.048 513.189 653.518 511.47 649.483Z" stroke="#110F36" stroke-width="5.52102" stroke-linecap="round" stroke-linejoin="round"/>
<path d="M640.268 591.053C612.262 569.456 580.019 576.496 575.627 577.533C571.728 547.064 550.013 523.012 522.799 517.846C492.186 512.035 469.016 532.857 466.361 535.323C457.187 516.288 436.774 480.729 396.798 454.202C352.07 424.521 269.597 397.354 209.766 440.352C177.794 463.329 164.382 497.65 158.578 519.495C120.094 503.81 75.6189 518.648 54.2342 554.12C33.1105 589.159 40.1387 635.008 70.9687 662.199H669.471C669.725 660.028 673.991 617.059 640.268 591.053Z" fill="white" stroke="#110F36" stroke-width="3.68068" stroke-linecap="round" stroke-linejoin="round"/>
<path d="M627.357 97.9946H207.584C197.916 97.9946 190.079 105.871 190.079 115.587V392.026C190.079 401.742 197.916 409.619 207.584 409.619H627.357C637.025 409.619 644.862 401.742 644.862 392.026V115.587C644.862 105.871 637.025 97.9946 627.357 97.9946Z" fill="white" stroke="#110F36" stroke-width="3.68068" stroke-linecap="round" stroke-linejoin="round"/>
<path d="M634.505 133.286C634.505 125.808 631.549 118.637 626.288 113.349C621.027 108.062 613.891 105.091 606.45 105.091H228.49C221.049 105.091 213.914 108.062 208.652 113.349C203.391 118.637 200.435 125.808 200.435 133.286V137.566H634.505V133.286Z" fill="#110F36" stroke="#110F36" stroke-width="1.84034" stroke-linecap="round" stroke-linejoin="round"/>
<path d="M200.435 137.566V374.328C200.435 381.806 203.391 388.977 208.652 394.265C213.914 399.552 221.049 402.523 228.49 402.523H606.45C613.891 402.523 621.027 399.552 626.288 394.265C631.549 388.977 634.505 381.806 634.505 374.328V137.566H200.435Z" fill="white" stroke="#110F36" stroke-width="3.68068" stroke-linecap="round" stroke-linejoin="round"/>
<path d="M200.435 173.18H634.505" stroke="#110F36" stroke-width="3.68068" stroke-linecap="round" stroke-linejoin="round" stroke-dasharray="22.08 22.08"/>
<path d="M471.611 149.438H427.314V162.298H471.611V149.438Z" fill="#110F36" stroke="#110F36" stroke-width="1.84034" stroke-linecap="round" stroke-linejoin="round"/>
<path d="M531.658 149.438H487.361V162.298H531.658V149.438Z" fill="white" stroke="#110F36" stroke-width="3.68068" stroke-linecap="round" stroke-linejoin="round"/>
<path d="M591.705 149.438H547.408V162.298H591.705V149.438Z" fill="white" stroke="#110F36" stroke-width="3.68068" stroke-linecap="round" stroke-linejoin="round"/>
<path d="M305.551 149.438H221.579V253.807H305.551V149.438Z" fill="white" stroke="#110F36" stroke-width="3.68068" stroke-linecap="round" stroke-linejoin="round"/>
<path d="M287.262 205.188H241.26V209.423H287.262V205.188Z" fill="white" stroke="#110F36" stroke-width="3.68068" stroke-linecap="round" stroke-linejoin="round"/>
<path d="M293.934 217.541H234.588V221.775H293.934V217.541Z" fill="white" stroke="#110F36" stroke-width="3.68068" stroke-linecap="round" stroke-linejoin="round"/>
<path d="M293.934 228.48H234.588V232.715H293.934V228.48Z" fill="white" stroke="#110F36" stroke-width="3.68068" stroke-linecap="round" stroke-linejoin="round"/>
<path d="M263.565 191.731C271.652 191.731 278.208 185.142 278.208 177.015C278.208 168.887 271.652 162.298 263.565 162.298C255.477 162.298 248.921 168.887 248.921 177.015C248.921 185.142 255.477 191.731 263.565 191.731Z" fill="#110F36" stroke="#110F36" stroke-width="1.84034" stroke-linecap="round" stroke-linejoin="round"/>
<path d="M291.032 381.52H234.588V391.523H291.032V381.52Z" fill="#110F36" stroke="#110F36" stroke-width="1.84034" stroke-linecap="round" stroke-linejoin="round"/>
<path d="M603.026 402.522H322.97V381.52H633.583C627.843 398.263 616.419 402.549 603.026 402.522Z" fill="#110F36" stroke="#110F36" stroke-width="1.84034" stroke-linecap="round" stroke-linejoin="round"/>
<path d="M322.97 137.566V402.523" stroke="#110F36" stroke-width="3.68068" stroke-linecap="round" stroke-linejoin="round" stroke-dasharray="22.08 22.08"/>
<path d="M408.625 201.622H340.197V270.044H408.625V201.622Z" stroke="#110F36" stroke-width="3.68068" stroke-linecap="round" stroke-linejoin="round" stroke-dasharray="22.08 22.08"/>
<path d="M505.825 201.622H437.397V270.044H505.825V201.622Z" stroke="#110F36" stroke-width="3.68068" stroke-linecap="round" stroke-linejoin="round" stroke-dasharray="22.08 22.08"/>
<path d="M603.026 201.622H534.597V270.044H603.026V201.622Z" stroke="#110F36" stroke-width="3.68068" stroke-linecap="round" stroke-linejoin="round" stroke-dasharray="22.08 22.08"/>
<path d="M408.625 291.428H340.197V359.85H408.625V291.428Z" stroke="#110F36" stroke-width="3.68068" stroke-linecap="round" stroke-linejoin="round" stroke-dasharray="22.08 22.08"/>
<path d="M505.825 291.428H437.397V359.85H505.825V291.428Z" stroke="#110F36" stroke-width="3.68068" stroke-linecap="round" stroke-linejoin="round" stroke-dasharray="22.08 22.08"/>
<path d="M603.026 291.428H534.597V359.85H603.026V291.428Z" stroke="#110F36" stroke-width="3.68068" stroke-linecap="round" stroke-linejoin="round" stroke-dasharray="22.08 22.08"/>
<path d="M404.373 264.83C385.216 265.928 362.059 264.207 356.44 259.007C350.822 253.807 349.955 250.962 348.333 243.347C346.073 232.73 345.386 219.257 345.028 205.188H404.373V264.83Z" fill="#FFBE1A" stroke="#110F36" stroke-width="3.68068" stroke-linecap="round" stroke-linejoin="round"/>
<path d="M347.869 241.003C350.183 250.702 363.463 250.89 363.463 250.89C363.463 250.89 363.733 259.127 369.818 263.555M501.284 264.83C482.126 265.928 458.969 264.207 453.351 259.007C447.732 253.807 446.866 250.962 445.244 243.347C442.983 232.73 442.297 219.257 441.938 205.188H501.284V264.83Z" fill="#FFBE1A"/>
<path d="M347.869 241.003C350.183 250.702 363.463 250.89 363.463 250.89C363.463 250.89 363.733 259.127 369.818 263.555M501.284 264.83C482.126 265.928 458.969 264.207 453.351 259.007C447.732 253.807 446.866 250.962 445.244 243.347C442.983 232.73 442.297 219.257 441.938 205.188H501.284V264.83Z" stroke="#110F36" stroke-width="3.68068" stroke-linecap="round" stroke-linejoin="round"/>
<path d="M444.779 241.003C447.094 250.702 460.374 250.89 460.374 250.89C460.374 250.89 460.643 259.127 466.728 263.555M598.195 264.83C579.037 265.928 555.88 264.207 550.261 259.007C544.643 253.807 543.776 250.962 542.154 243.347C539.894 232.73 539.207 219.257 538.849 205.188H598.195V264.83Z" fill="#FFBE1A"/>
<path d="M444.779 241.003C447.094 250.702 460.374 250.89 460.374 250.89C460.374 250.89 460.643 259.127 466.728 263.555M598.195 264.83C579.037 265.928 555.88 264.207 550.261 259.007C544.643 253.807 543.776 250.962 542.154 243.347C539.894 232.73 539.207 219.257 538.849 205.188H598.195V264.83Z" stroke="#110F36" stroke-width="3.68068" stroke-linecap="round" stroke-linejoin="round"/>
<path d="M541.69 241.002C544.004 250.702 557.285 250.89 557.285 250.89C557.285 250.89 557.554 259.127 563.639 263.555M404.373 355.301C385.216 356.4 362.059 354.678 356.44 349.478C350.822 344.278 349.955 341.434 348.333 333.818C346.073 323.201 345.386 309.728 345.028 295.66H404.373V355.301Z" fill="#FFBE1A"/>
<path d="M541.69 241.002C544.004 250.702 557.285 250.89 557.285 250.89C557.285 250.89 557.554 259.127 563.639 263.555M404.373 355.301C385.216 356.4 362.059 354.678 356.44 349.478C350.822 344.278 349.955 341.434 348.333 333.818C346.073 323.201 345.386 309.728 345.028 295.66H404.373V355.301Z" stroke="#110F36" stroke-width="3.68068" stroke-linecap="round" stroke-linejoin="round"/>
<path d="M347.869 331.474C350.183 341.173 363.463 341.362 363.463 341.362C363.463 341.362 363.733 349.599 369.818 354.027M501.284 355.302C482.126 356.4 458.969 354.678 453.351 349.479C447.732 344.279 446.866 341.434 445.244 333.818C442.983 323.202 442.297 309.728 441.938 295.66H501.284V355.302Z" fill="#FFBE1A"/>
<path d="M347.869 331.474C350.183 341.173 363.463 341.362 363.463 341.362C363.463 341.362 363.733 349.599 369.818 354.027M501.284 355.302C482.126 356.4 458.969 354.678 453.351 349.479C447.732 344.279 446.866 341.434 445.244 333.818C442.983 323.202 442.297 309.728 441.938 295.66H501.284V355.302Z" stroke="#110F36" stroke-width="3.68068" stroke-linecap="round" stroke-linejoin="round"/>
<path d="M444.779 331.474C447.094 341.173 460.374 341.362 460.374 341.362C460.374 341.362 460.643 349.599 466.728 354.027M598.195 355.302C579.037 356.4 555.88 354.678 550.261 349.479C544.643 344.279 543.776 341.434 542.154 333.818C539.894 323.202 539.207 309.728 538.849 295.66H598.195V355.302Z" fill="#FFBE1A"/>
<path d="M444.779 331.474C447.094 341.173 460.374 341.362 460.374 341.362C460.374 341.362 460.643 349.599 466.728 354.027M598.195 355.302C579.037 356.4 555.88 354.678 550.261 349.479C544.643 344.279 543.776 341.434 542.154 333.818C539.894 323.202 539.207 309.728 538.849 295.66H598.195V355.302Z" stroke="#110F36" stroke-width="3.68068" stroke-linecap="round" stroke-linejoin="round"/>
<path d="M541.69 331.474C544.005 341.173 557.285 341.361 557.285 341.361C557.285 341.361 557.554 349.599 563.639 354.027" fill="white"/>
<path d="M541.69 331.474C544.005 341.173 557.285 341.361 557.285 341.361C557.285 341.361 557.554 349.599 563.639 354.027" stroke="#110F36" stroke-width="3.68068" stroke-linecap="round" stroke-linejoin="round"/>
<path d="M28.6403 662.199H739.362" stroke="#110F36" stroke-width="3.68068" stroke-linecap="round" stroke-linejoin="round"/>
<path d="M585.635 436.148C589.409 428.399 587.932 423.452 582.518 424.441C577.104 425.431 545.111 439.94 541.83 443.732C539.804 446.074 542.031 456.677 544.031 464.45C544.218 464.355 544.405 464.267 544.588 464.193C551.369 462.064 558.423 460.395 565.515 459.615C565.144 458.165 564.761 456.645 564.382 455.109C565.443 452.966 581.862 443.897 585.635 436.148Z" fill="white" stroke="#110F36" stroke-width="3.68068" stroke-linecap="round" stroke-linejoin="round"/>
<path d="M544.031 464.45C545.271 469.268 546.424 472.999 546.424 472.999L568.244 469.948C568.244 469.948 566.978 465.339 565.515 459.615C558.423 460.395 551.369 462.064 544.588 464.193C544.405 464.267 544.218 464.355 544.031 464.45Z" fill="#110F36" stroke="#110F36" stroke-width="1.84034" stroke-linecap="round" stroke-linejoin="round"/>
<path d="M556.268 590.971C556.268 590.971 536.908 565.579 544.783 470.938C545.111 466.321 557.252 462.694 567.424 462.694C576.94 476.214 598.924 565.25 599.909 577.78C600.893 590.311 596.627 606.191 595.643 606.166C594.659 606.14 556.268 590.971 556.268 590.971Z" fill="white" stroke="#110F36" stroke-width="3.68068" stroke-linecap="round" stroke-linejoin="round"/>
<path d="M556.138 477.457C556.138 477.457 573.456 595.137 584.693 607.937" stroke="#110F36" stroke-width="3.68068" stroke-linecap="round" stroke-linejoin="round" stroke-dasharray="22.08 22.08"/>
<path d="M665.386 480.888C664.099 482.85 663.332 484.128 663.332 484.128C663.332 484.128 678.823 497.484 679.315 497.484C679.687 497.484 683.146 491.375 686.372 488.382C681.435 482.274 673.529 478.837 665.386 480.888Z" fill="#110F36" stroke="#110F36" stroke-width="1.84034" stroke-linecap="round" stroke-linejoin="round"/>
<path d="M725.745 488.91C721.479 483.799 695.393 460.551 686.534 460.386C679.722 460.259 669.67 474.362 665.386 480.888C673.529 478.837 681.435 482.274 686.372 488.382C687.418 487.411 688.439 486.766 689.323 486.766C692.932 486.766 703.433 495.67 716.394 498.968C729.354 502.265 730.011 494.021 725.745 488.91Z" fill="white" stroke="#110F36" stroke-width="3.68068" stroke-linecap="round" stroke-linejoin="round"/>
<path d="M665.206 482.809C599.252 528.646 590.721 596.004 590.721 596.004C590.721 596.004 551.674 579.429 515.908 575.472C480.142 571.515 440.767 599.325 440.767 599.325L440.933 603.306L443.392 662.199H527.064C541.174 662.199 606.799 668.135 620.581 649.668C634.362 631.202 683.909 496.329 683.909 493.362C683.909 490.394 679.971 482.48 665.206 482.809Z" fill="white" stroke="#110F36" stroke-width="3.68068" stroke-linecap="round" stroke-linejoin="round"/>
<path d="M470.216 631.677C470.216 631.677 571.349 624.619 596.984 631.677C617 591.093 658.96 505.476 674.852 493.937" stroke="#110F36" stroke-width="3.68068" stroke-linecap="round" stroke-linejoin="round" stroke-dasharray="22.08 22.08"/>
<path d="M442.123 604.327C442.123 604.327 445.108 599.406 451.253 611.836C457.398 624.266 461.612 654.131 450.2 663.108L441.42 662.476L442.123 604.327Z" fill="#110F36" stroke="#110F36" stroke-width="1.84034" stroke-linecap="round" stroke-linejoin="round"/>
<path d="M248.665 625.398C248.665 625.398 281.625 592.907 288.802 581.237C296.164 573.86 291.693 548.203 315.715 545.272C315.715 545.272 342.71 536.53 393.622 566.195C435.528 592.257 443.558 602.334 447.243 608.376C450.928 614.418 459.959 643.762 445.175 662.416C396.201 663.365 317.861 658.63 307.671 658.374" fill="#FFBE1A"/>
<path d="M248.665 625.398C248.665 625.398 281.625 592.907 288.802 581.237C296.164 573.86 291.693 548.203 315.715 545.272C315.715 545.272 342.71 536.53 393.622 566.195C435.528 592.257 443.558 602.334 447.243 608.376C450.928 614.418 459.959 643.762 445.175 662.416C396.201 663.365 317.861 658.63 307.671 658.374" stroke="#110F36" stroke-width="3.68068" stroke-linecap="round" stroke-linejoin="round"/>
<path d="M250.947 564.255C250.947 564.255 257.76 553.755 252.059 546.555C246.358 539.355 242.869 529.923 246.426 524.337C249.984 518.751 255.728 518.688 259.049 523.837C262.371 528.986 278.334 546.669 272.225 554.172C266.115 561.674 260.612 573.443 260.612 573.443L250.947 564.255Z" fill="white" stroke="#110F36" stroke-width="3.68068" stroke-linecap="round" stroke-linejoin="round"/>
<path d="M266.418 635.338C244.557 627.417 261.468 581.329 263.13 575.571C264.793 569.812 255.16 564.913 252.935 562.609C250.71 560.304 248.426 562.787 248.426 562.787C248.426 562.787 201.778 623.047 208.847 646.281C215.915 669.515 278.349 660.112 278.349 660.112C278.349 660.112 314.205 663.012 316.027 661.705C317.85 660.397 316.027 645.378 316.027 645.378" fill="#FFBE1A"/>
<path d="M266.418 635.338C244.557 627.417 261.468 581.329 263.13 575.571C264.793 569.812 255.16 564.913 252.935 562.609C250.71 560.304 248.426 562.787 248.426 562.787C248.426 562.787 201.778 623.047 208.847 646.281C215.915 669.515 278.349 660.112 278.349 660.112C278.349 660.112 314.205 663.012 316.027 661.705C317.85 660.397 316.027 645.378 316.027 645.378" stroke="#110F36" stroke-width="3.68068" stroke-linecap="round" stroke-linejoin="round"/>
<path d="M268.046 489.489C268.046 489.489 248.588 516.661 257.021 539.098C265.453 561.535 290.899 544.687 290.899 544.687" fill="white"/>
<path d="M268.046 489.489C268.046 489.489 248.588 516.661 257.021 539.098C265.453 561.535 290.899 544.687 290.899 544.687" stroke="#110F36" stroke-width="3.68068" stroke-linecap="round" stroke-linejoin="round"/>
<path d="M282.951 548.627C282.951 548.627 287.972 577.339 292.903 584.209C310.095 588.149 318.242 567.86 317.776 547.583C310.703 543.077 304.149 526.671 304.149 526.671" fill="white"/>
<path d="M282.951 548.627C282.951 548.627 287.972 577.339 292.903 584.209C310.095 588.149 318.242 567.86 317.776 547.583C310.703 543.077 304.149 526.671 304.149 526.671" stroke="#110F36" stroke-width="3.68068" stroke-linecap="round" stroke-linejoin="round"/>
<path d="M289.764 545.259L283.311 551.788L282.951 548.391L289.764 545.259Z" fill="#110F36" stroke="#110F36" stroke-width="1.84034" stroke-linecap="round" stroke-linejoin="round"/>
<path d="M266.733 465.409C264.025 464.402 250.997 490.164 274.532 499.958C281.415 503.81 283.52 503.067 281.4 507.606C279.279 512.145 279.764 516.746 282.67 517.291C285.577 517.836 290.517 514.01 292.545 511.29C294.573 508.57 301.493 513.369 300.204 518.185C298.915 523.001 293.999 525.341 294.237 527.229C296.906 532.486 298.26 537.713 308.967 534.401C319.674 531.089 318.836 511.816 317.528 505.68C316.22 499.544 313.253 488.771 297.678 485.18C282.103 481.589 269.44 466.415 266.733 465.409Z" fill="#110F36" stroke="#110F36" stroke-width="1.84034" stroke-linecap="round" stroke-linejoin="round"/>
<path d="M279.093 645.135C269.634 648.851 263.025 662.104 267.598 662.542C270.831 662.851 286.903 662.757 296.049 662.676C295.262 656.13 293.912 649.809 289.936 644.306C286.768 643.691 282.951 643.619 279.093 645.135Z" fill="white" stroke="#110F36" stroke-width="3.68068" stroke-linecap="round" stroke-linejoin="round"/>
<path d="M354.268 567.506C354.268 567.506 419.413 614.676 411.144 642.477C402.876 670.279 305.708 662.606 302.012 662.541C298.179 659.017 291.923 637.793 294.487 636.207C297.052 634.62 338.225 635.712 341.532 632.116C344.839 628.52 345.991 626.494 334.783 617.038C323.576 607.581 311.088 584.314 330.059 571.93C335.175 570.49 336.404 570.441 336.404 570.441M290.123 593.725C290.123 593.725 285.778 610.563 293.204 622.149Z" fill="#FFBE1A"/>
<path d="M354.268 567.506C354.268 567.506 419.413 614.676 411.144 642.477C402.876 670.279 305.708 662.606 302.012 662.541C298.179 659.017 291.923 637.793 294.487 636.207C297.052 634.62 338.225 635.712 341.532 632.116C344.839 628.52 345.991 626.494 334.783 617.038C323.576 607.581 311.088 584.314 330.059 571.93C335.175 570.49 336.404 570.441 336.404 570.441M290.123 593.725C290.123 593.725 285.778 610.563 293.204 622.149" stroke="#110F36" stroke-width="3.68068" stroke-linecap="round" stroke-linejoin="round"/>
<path d="M297.771 647.241C295.341 645.83 292.692 644.838 289.936 644.306C293.912 649.809 295.262 656.13 296.049 662.676C299.843 662.642 302.446 662.61 302.446 662.61C302.446 662.61 299.628 648.22 297.771 647.241Z" fill="#110F36" stroke="#110F36" stroke-width="3.68068" stroke-linecap="round" stroke-linejoin="round"/>
<path d="M194.344 652.471H126.422V661.705H194.344V652.471Z" fill="#110F36" stroke="#110F36" stroke-width="1.84034" stroke-linecap="round" stroke-linejoin="round"/>
<path d="M100.771 590.096C101.263 591.085 132.821 649.133 132.821 649.133L126.094 652.059L94.5938 594.199L100.771 590.096Z" fill="#FFBE1A" stroke="#110F36" stroke-width="3.68068" stroke-linecap="round" stroke-linejoin="round"/>
<path d="M126.422 362.049C146.431 362.049 162.651 345.748 162.651 325.639C162.651 305.53 146.431 289.229 126.422 289.229C106.413 289.229 90.1924 305.53 90.1924 325.639C90.1924 345.748 106.413 362.049 126.422 362.049Z" fill="white" stroke="#110F36" stroke-width="3.68068" stroke-linecap="round" stroke-linejoin="round"/>
<path d="M131.749 318.207C133.361 317.263 134.619 315.812 135.327 314.078C136.036 312.344 136.157 310.424 135.67 308.614C135.184 306.804 134.118 305.206 132.637 304.066C131.156 302.927 129.343 302.309 127.477 302.309C125.612 302.309 123.799 302.927 122.318 304.066C120.837 305.206 119.771 306.804 119.284 308.614C118.798 310.424 118.919 312.344 119.627 314.078C120.336 315.812 121.594 317.263 123.205 318.207C119.505 319.161 116.226 321.326 113.884 324.359C111.542 327.392 110.271 331.122 110.271 334.962V343.314H144.684V334.962C144.684 331.122 143.413 327.392 141.071 324.359C138.729 321.326 135.45 319.161 131.749 318.207Z" fill="#110F36" stroke="#110F36" stroke-width="1.84034" stroke-linecap="round" stroke-linejoin="round"/>
<path d="M690.743 304.418C700.052 304.418 707.599 296.834 707.599 287.479C707.599 278.124 700.052 270.54 690.743 270.54C681.434 270.54 673.888 278.124 673.888 287.479C673.888 296.834 681.434 304.418 690.743 304.418Z" fill="#110F36" stroke="#110F36" stroke-width="1.84034" stroke-linecap="round" stroke-linejoin="round"/>
<path d="M709.996 381.637C728.774 381.637 743.997 366.338 743.997 347.466C743.997 328.594 728.774 313.295 709.996 313.295C691.218 313.295 675.995 328.594 675.995 347.466C675.995 366.338 691.218 381.637 709.996 381.637Z" fill="#FFBE1A" stroke="#110F36" stroke-width="3.68068" stroke-linecap="round" stroke-linejoin="round"/>
<path d="M132.27 207.851H61.0994C57.807 207.851 54.6495 209.165 52.3214 211.505C49.9933 213.844 48.6855 217.018 48.6855 220.326V235.35C48.6855 238.658 49.9934 241.832 52.3214 244.171C54.6495 246.511 57.807 247.825 61.0994 247.825H117.938C120.432 251.47 124.64 257.417 128.275 262.523C130.113 265.106 134.164 263.526 133.792 260.373L132.311 247.824C135.596 247.814 138.743 246.495 141.062 244.156C143.382 241.818 144.684 238.651 144.684 235.35V220.326C144.684 218.688 144.363 217.066 143.739 215.552C143.115 214.038 142.201 212.663 141.048 211.505C139.895 210.346 138.527 209.427 137.021 208.8C135.515 208.173 133.9 207.851 132.27 207.851Z" fill="#FFBE1A" stroke="#110F36" stroke-width="3.68068" stroke-linecap="round" stroke-linejoin="round"/>
<path d="M126.752 215.95H63.1924V221.597H126.752V215.95Z" fill="white" stroke="#110F36" stroke-width="3.68068" stroke-linecap="round" stroke-linejoin="round"/>
<path d="M126.752 230.187H63.1924V235.834H126.752V230.187Z" fill="white" stroke="#110F36" stroke-width="3.68068" stroke-linecap="round" stroke-linejoin="round"/>
<path d="M279.372 349.632V344.267H273.864C273.649 343.483 273.338 342.729 272.939 342.021L276.833 338.108L273.058 334.313L269.164 338.227C268.46 337.826 267.709 337.513 266.929 337.297V331.764H261.593V337.297C260.813 337.513 260.062 337.826 259.359 338.227L255.465 334.313L251.689 338.108L255.583 342.021C255.184 342.729 254.873 343.483 254.658 344.267H249.15V349.632H254.658C254.873 350.416 255.184 351.17 255.583 351.878L251.689 355.791L255.465 359.585L259.359 355.672C260.062 356.073 260.813 356.385 261.593 356.602V362.134H266.929V356.602C267.709 356.385 268.46 356.073 269.164 355.672L273.058 359.585L276.833 355.791L272.939 351.877C273.338 351.17 273.649 350.416 273.865 349.632H279.372ZM268.883 349.632C268.415 350.448 267.741 351.125 266.929 351.596C266.526 351.832 266.093 352.012 265.642 352.132C264.736 352.375 263.783 352.375 262.878 352.132C262.428 352.012 261.996 351.832 261.593 351.596C260.368 350.883 259.472 349.712 259.102 348.338C258.984 347.885 258.924 347.418 258.924 346.949C258.923 346.48 258.984 346.014 259.105 345.561C259.224 345.107 259.404 344.672 259.639 344.267C260.108 343.452 260.782 342.774 261.593 342.303C261.995 342.067 262.428 341.886 262.878 341.766C263.783 341.523 264.736 341.523 265.642 341.766C266.093 341.886 266.526 342.067 266.929 342.303C267.74 342.774 268.414 343.452 268.883 344.267C269.118 344.672 269.298 345.107 269.417 345.561C269.538 346.014 269.599 346.48 269.598 346.949C269.599 347.418 269.539 347.885 269.42 348.338C269.298 348.791 269.118 349.226 268.883 349.632Z" fill="#110F36" stroke="#110F36" stroke-width="1.84034" stroke-linecap="round" stroke-linejoin="round"/>
</g>
<defs>
<clipPath id="clip0_329_14">
<rect width="803" height="807" fill="white" transform="translate(0 0.219238)"/>
</clipPath>
</defs>
</svg>
