<svg width="497" height="160" viewBox="0 0 497 160" fill="none" xmlns="http://www.w3.org/2000/svg">
<g filter="url(#filter0_i_329_119)">
<path d="M400.098 55.9373C397.742 55.9373 395.758 55.1313 394.146 53.5193C392.534 51.9073 391.728 49.9543 391.728 47.6603C391.728 45.3663 392.534 43.3823 394.146 41.7083C395.758 40.0343 397.742 39.1973 400.098 39.1973C402.454 39.1973 404.438 40.0343 406.05 41.7083C407.662 43.3823 408.468 45.3663 408.468 47.6603C408.468 49.9543 407.662 51.9073 406.05 53.5193C404.438 55.1313 402.454 55.9373 400.098 55.9373ZM408.282 80.8613C408.282 85.0773 407.29 88.8283 405.306 92.1143C403.384 95.4003 400.935 98.0973 397.959 100.205C395.045 102.375 392.1 103.925 389.124 104.855L387.822 100.949C390.922 99.3373 393.464 97.4463 395.448 95.2763C397.494 93.1063 399.075 90.7813 400.191 88.3013L396.936 86.6273C395.014 85.5733 393.65 84.3643 392.844 83.0003C392.1 81.5743 391.728 80.1793 391.728 78.8153C391.728 76.5213 392.503 74.5993 394.053 73.0493C395.603 71.4993 397.556 70.7243 399.912 70.7243C401.214 70.7243 402.423 70.9103 403.539 71.2823C404.655 71.6543 405.771 72.3363 406.887 73.3283C407.445 74.7543 407.817 76.0253 408.003 77.1413C408.189 78.1953 408.282 79.4353 408.282 80.8613Z" fill="#FFBE1A"/>
</g>
<path d="M42.4198 47.928V45.55H55.5858V47.928L50.7138 48.624L40.9118 84.7581H38.4178L28.3838 54.714L18.9298 84.7581H16.4358L5.99577 48.508L1.18177 47.928V45.55H16.9578V47.928L11.6218 48.566L18.7558 75.1881L27.5718 48.624L21.7718 47.928V45.55H37.5478V47.928L31.6898 48.624L40.3318 75.4781L47.6978 48.6821L42.4198 47.928ZM67.57 58.716C66.4874 58.716 65.3854 59.0254 64.264 59.644C63.1814 60.2627 62.234 61.2487 61.422 62.602C60.6487 63.9554 60.146 65.7534 59.914 67.9961H70.47C71.862 67.9961 72.7707 67.7061 73.196 67.126C73.66 66.5461 73.892 65.8307 73.892 64.98C73.892 63.8587 73.602 62.8341 73.022 61.906C72.4807 60.9394 71.7267 60.166 70.76 59.586C69.832 59.006 68.7687 58.716 67.57 58.716ZM67.512 85.1061C63.6067 85.1061 60.4747 83.8494 58.116 81.3361C55.7574 78.7841 54.578 75.2847 54.578 70.8381C54.578 67.8607 55.1774 65.2701 56.376 63.066C57.6134 60.862 59.2374 59.1414 61.248 57.904C63.2974 56.6667 65.5207 56.048 67.918 56.048C69.9287 56.048 71.746 56.4927 73.37 57.382C74.994 58.2714 76.2894 59.5474 77.256 61.21C78.2227 62.834 78.706 64.8254 78.706 67.1841C78.706 67.8414 78.6674 68.4601 78.59 69.0401C78.5127 69.5814 78.416 70.0454 78.3 70.4321H59.798C59.8754 73.9894 60.7647 76.6961 62.466 78.5521C64.1674 80.4081 66.41 81.3361 69.194 81.3361C71.05 81.3361 72.5967 80.9687 73.834 80.2341C75.0714 79.4607 76.212 78.4747 77.256 77.2761L78.648 78.3781C77.5654 80.4274 76.096 82.0707 74.24 83.3081C72.384 84.5067 70.1414 85.1061 67.512 85.1061ZM82.418 84.3521V82.2641L87.058 81.4521C87.0967 79.8667 87.116 78.3201 87.116 76.8121C87.1547 75.2654 87.174 73.7187 87.174 72.1721V46.71L82.418 46.13V44.1001L91.466 41.49L92.278 41.9541L92.046 50.19V72.1721C92.046 73.7187 92.046 75.2654 92.046 76.8121C92.0847 78.3587 92.1234 79.9054 92.162 81.4521L96.802 82.2641V84.3521H82.418ZM113.729 85.1061C109.747 85.1061 106.576 83.8107 104.217 81.2201C101.859 78.6294 100.679 75.1107 100.679 70.664C100.679 67.6094 101.298 64.9994 102.535 62.834C103.811 60.63 105.474 58.948 107.523 57.788C109.573 56.628 111.757 56.048 114.077 56.048C115.817 56.048 117.422 56.3767 118.891 57.034C120.361 57.6914 121.579 58.6 122.545 59.76C123.512 60.8814 124.111 62.1574 124.343 63.5881C124.073 65.0574 123.183 65.792 121.675 65.792C120.709 65.792 119.974 65.5407 119.471 65.0381C119.007 64.4967 118.679 63.8201 118.485 63.008L117.441 59.18C116.9 58.9867 116.359 58.8707 115.817 58.832C115.315 58.7547 114.812 58.716 114.309 58.716C111.835 58.716 109.785 59.6827 108.161 61.616C106.576 63.5494 105.783 66.3721 105.783 70.0841C105.783 73.7187 106.653 76.5027 108.393 78.4361C110.133 80.3694 112.357 81.3361 115.063 81.3361C116.726 81.3361 118.253 80.9687 119.645 80.2341C121.037 79.4607 122.178 78.3587 123.067 76.9281L124.517 77.6821C123.705 80.0794 122.391 81.9161 120.573 83.1921C118.756 84.4681 116.475 85.1061 113.729 85.1061ZM142.456 85.1061C140.213 85.1061 138.067 84.5841 136.018 83.5401C134.007 82.4574 132.364 80.8527 131.088 78.7261C129.812 76.5607 129.174 73.8927 129.174 70.722C129.174 67.5127 129.812 64.8254 131.088 62.6601C132.364 60.456 134.007 58.8127 136.018 57.73C138.067 56.6087 140.213 56.048 142.456 56.048C144.698 56.048 146.825 56.6087 148.836 57.73C150.885 58.8127 152.548 60.456 153.824 62.6601C155.138 64.8254 155.796 67.5127 155.796 70.722C155.796 73.8927 155.138 76.5607 153.824 78.7261C152.548 80.8527 150.885 82.4574 148.836 83.5401C146.825 84.5841 144.698 85.1061 142.456 85.1061ZM142.456 82.4961C144.969 82.4961 146.902 81.5101 148.256 79.5381C149.609 77.5274 150.286 74.5887 150.286 70.722C150.286 66.8167 149.609 63.8394 148.256 61.79C146.902 59.7407 144.969 58.716 142.456 58.716C139.942 58.716 138.009 59.7407 136.656 61.79C135.341 63.8394 134.684 66.8167 134.684 70.722C134.684 74.5887 135.341 77.5274 136.656 79.5381C138.009 81.5101 139.942 82.4961 142.456 82.4961ZM160.716 84.3521V82.2641L165.008 81.4521C165.046 79.9827 165.066 78.3974 165.066 76.6961C165.104 74.9947 165.124 73.4867 165.124 72.1721V69.388C165.124 67.8027 165.104 66.488 165.066 65.4441C165.066 64.4001 165.027 63.298 164.95 62.138L160.368 61.616V59.586L168.488 56.048L169.358 56.628L169.822 61.326C171.175 59.7794 172.76 58.5227 174.578 57.5561C176.395 56.5507 178.193 56.048 179.972 56.048C181.789 56.048 183.258 56.4734 184.38 57.324C185.54 58.1747 186.371 59.5667 186.874 61.5C188.343 59.6827 189.986 58.3294 191.804 57.44C193.621 56.512 195.477 56.048 197.372 56.048C199.73 56.048 201.548 56.8407 202.824 58.426C204.138 60.0114 204.796 62.602 204.796 66.198V72.1721C204.796 73.4867 204.796 74.9947 204.796 76.6961C204.834 78.3974 204.873 79.9827 204.912 81.4521L208.972 82.2641V84.3521H195.516V82.2641L199.808 81.4521C199.846 80.0214 199.866 78.4554 199.866 76.7541C199.904 75.0141 199.924 73.4867 199.924 72.1721V67.126C199.924 64.4194 199.537 62.602 198.764 61.674C197.99 60.7074 196.753 60.2241 195.052 60.2241C193.853 60.2241 192.616 60.4947 191.34 61.0361C190.102 61.5774 188.749 62.5247 187.28 63.878C187.318 64.3034 187.338 64.7674 187.338 65.27C187.376 65.7341 187.396 66.2367 187.396 66.7781V72.1721C187.396 73.4867 187.396 74.9947 187.396 76.6961C187.434 78.3974 187.473 79.9827 187.512 81.4521L191.572 82.2641V84.3521H178.116V82.2641L182.408 81.4521C182.446 80.0214 182.466 78.4554 182.466 76.7541C182.504 75.0141 182.524 73.4867 182.524 72.1721V67.242C182.524 64.6127 182.156 62.7954 181.422 61.79C180.687 60.746 179.469 60.2241 177.768 60.2241C176.453 60.2241 175.196 60.4947 173.998 61.0361C172.799 61.5774 171.484 62.4667 170.054 63.7041V72.1721C170.054 73.4481 170.054 74.9561 170.054 76.6961C170.092 78.3974 170.131 79.9827 170.17 81.4521L174.172 82.2641V84.3521H160.716ZM226.277 58.716C225.194 58.716 224.092 59.0254 222.971 59.644C221.888 60.2627 220.941 61.2487 220.129 62.602C219.356 63.9554 218.853 65.7534 218.621 67.9961H229.177C230.569 67.9961 231.478 67.7061 231.903 67.126C232.367 66.5461 232.599 65.8307 232.599 64.98C232.599 63.8587 232.309 62.8341 231.729 61.906C231.188 60.9394 230.434 60.166 229.467 59.586C228.539 59.006 227.476 58.716 226.277 58.716ZM226.219 85.1061C222.314 85.1061 219.182 83.8494 216.823 81.3361C214.464 78.7841 213.285 75.2847 213.285 70.8381C213.285 67.8607 213.884 65.2701 215.083 63.066C216.32 60.862 217.944 59.1414 219.955 57.904C222.004 56.6667 224.228 56.048 226.625 56.048C228.636 56.048 230.453 56.4927 232.077 57.382C233.701 58.2714 234.996 59.5474 235.963 61.21C236.93 62.834 237.413 64.8254 237.413 67.1841C237.413 67.8414 237.374 68.4601 237.297 69.0401C237.22 69.5814 237.123 70.0454 237.007 70.4321H218.505C218.582 73.9894 219.472 76.6961 221.173 78.5521C222.874 80.4081 225.117 81.3361 227.901 81.3361C229.757 81.3361 231.304 80.9687 232.541 80.2341C233.778 79.4607 234.919 78.4747 235.963 77.2761L237.355 78.3781C236.272 80.4274 234.803 82.0707 232.947 83.3081C231.091 84.5067 228.848 85.1061 226.219 85.1061ZM255.519 84.3521V82.2641L259.869 81.5101C259.907 80.0407 259.927 78.4554 259.927 76.7541C259.965 75.0141 259.985 73.4867 259.985 72.1721V46.71L255.229 46.13V44.1001L264.103 41.49L264.915 41.9541L264.683 50.19V60.5141C266.075 58.9674 267.505 57.846 268.975 57.1501C270.483 56.4154 272.029 56.048 273.615 56.048C275.664 56.048 277.52 56.6087 279.183 57.73C280.845 58.8514 282.16 60.4754 283.127 62.602C284.132 64.7287 284.635 67.3 284.635 70.316C284.635 73.2934 284.113 75.9034 283.069 78.1461C282.025 80.3501 280.594 82.0707 278.777 83.3081C276.998 84.5067 274.968 85.1061 272.687 85.1061C271.333 85.1061 269.98 84.8161 268.627 84.2361C267.273 83.6561 265.959 82.5734 264.683 80.9881L264.219 84.9321L255.519 84.3521ZM272.049 59.354C271.159 59.354 270.135 59.586 268.975 60.05C267.815 60.5141 266.442 61.4034 264.857 62.718V78.6101C266.055 79.7314 267.235 80.5434 268.395 81.0461C269.555 81.5487 270.676 81.8001 271.759 81.8001C273.808 81.8001 275.587 80.9107 277.095 79.1321C278.641 77.3147 279.415 74.5307 279.415 70.7801C279.415 67.0681 278.719 64.2454 277.327 62.312C275.973 60.34 274.214 59.354 272.049 59.354ZM311.381 84.9321C309.989 84.9321 308.829 84.5261 307.901 83.7141C306.973 82.9021 306.393 81.8194 306.161 80.4661C304.576 82.0127 303.184 83.1727 301.985 83.9461C300.787 84.7194 299.337 85.1061 297.635 85.1061C295.509 85.1061 293.672 84.5067 292.125 83.3081C290.617 82.0707 289.863 80.2534 289.863 77.8561C289.863 76.7347 290.115 75.6907 290.617 74.7241C291.159 73.7574 292.125 72.8101 293.517 71.8821C294.909 70.9541 296.901 70.0261 299.491 69.0981C300.381 68.7887 301.405 68.46 302.565 68.1121C303.725 67.7641 304.885 67.4547 306.045 67.1841V65.7341C306.045 62.9114 305.62 61.036 304.769 60.1081C303.919 59.18 302.527 58.716 300.593 58.716C300.168 58.716 299.685 58.7354 299.143 58.774C298.641 58.8127 298.08 58.9094 297.461 59.064L296.359 62.834C295.818 64.69 294.813 65.618 293.343 65.618C291.719 65.618 290.811 64.8254 290.617 63.24C291.159 61.036 292.435 59.296 294.445 58.02C296.495 56.7054 298.989 56.048 301.927 56.048C304.982 56.048 307.244 56.8214 308.713 58.368C310.183 59.8761 310.917 62.4667 310.917 66.1401V78.4941C310.917 79.7314 311.111 80.6207 311.497 81.1621C311.884 81.6647 312.387 81.9161 313.005 81.9161C313.508 81.9161 313.933 81.8001 314.281 81.5681C314.629 81.3361 314.958 81.0267 315.267 80.6401L316.427 81.9161C315.731 83.0374 314.958 83.8301 314.107 84.2941C313.295 84.7194 312.387 84.9321 311.381 84.9321ZM295.025 76.9861C295.025 78.5327 295.47 79.6347 296.359 80.2921C297.249 80.9494 298.351 81.2781 299.665 81.2781C300.245 81.2781 300.787 81.2007 301.289 81.0461C301.831 80.8914 302.469 80.6014 303.203 80.1761C303.938 79.7121 304.885 79.0547 306.045 78.2041V69.3301C305.04 69.6007 304.054 69.9101 303.087 70.258C302.121 70.5674 301.328 70.838 300.709 71.07C299.047 71.7274 297.809 72.4041 296.997 73.1001C296.185 73.7961 295.644 74.4727 295.373 75.1301C295.141 75.7874 295.025 76.4061 295.025 76.9861ZM332.249 85.1061C328.266 85.1061 325.096 83.8107 322.737 81.2201C320.378 78.6294 319.199 75.1107 319.199 70.664C319.199 67.6094 319.818 64.9994 321.055 62.834C322.331 60.63 323.994 58.948 326.043 57.788C328.092 56.628 330.277 56.048 332.597 56.048C334.337 56.048 335.942 56.3767 337.411 57.034C338.88 57.6914 340.098 58.6 341.065 59.76C342.032 60.8814 342.631 62.1574 342.863 63.5881C342.592 65.0574 341.703 65.792 340.195 65.792C339.228 65.792 338.494 65.5407 337.991 65.0381C337.527 64.4967 337.198 63.8201 337.005 63.008L335.961 59.18C335.42 58.9867 334.878 58.8707 334.337 58.832C333.834 58.7547 333.332 58.716 332.829 58.716C330.354 58.716 328.305 59.6827 326.681 61.616C325.096 63.5494 324.303 66.3721 324.303 70.0841C324.303 73.7187 325.173 76.5027 326.913 78.4361C328.653 80.3694 330.876 81.3361 333.583 81.3361C335.246 81.3361 336.773 80.9687 338.165 80.2341C339.557 79.4607 340.698 78.3587 341.587 76.9281L343.037 77.6821C342.225 80.0794 340.91 81.9161 339.093 83.1921C337.276 84.4681 334.994 85.1061 332.249 85.1061ZM345.91 84.3521V82.2641L350.55 81.4521C350.589 79.9054 350.608 78.3587 350.608 76.8121C350.647 75.2267 350.666 73.6801 350.666 72.1721V46.71L345.91 46.13V44.1001L354.958 41.49L355.77 41.9541L355.538 50.19V70.4321L365.456 60.1081L361.164 59.064V56.802H374.678V59.064L369.226 59.876L362.846 66.43L372.358 81.5681L376.186 82.2641V84.3521H368.298L359.366 69.9681L355.538 73.9121C355.538 75.1494 355.538 76.4061 355.538 77.6821C355.577 78.9581 355.616 80.2147 355.654 81.4521L360.294 82.2641V84.3521H345.91Z" fill="#110F36"/>
<path d="M1.61377 148.74V147.624L3.84577 147.221C3.86643 146.436 3.87677 145.589 3.87677 144.679C3.89743 143.749 3.90777 142.933 3.90777 142.23V140.742C3.90777 139.895 3.89743 139.192 3.87677 138.634C3.87677 138.076 3.8561 137.487 3.81477 136.867L1.36577 136.588V135.503L5.70577 133.612L6.17077 133.922L6.51177 137.58C7.02843 136.34 7.68977 135.369 8.49577 134.666C9.32243 133.964 10.1491 133.612 10.9758 133.612C11.4511 133.612 11.8954 133.716 12.3088 133.922C12.7221 134.129 13.0218 134.408 13.2078 134.759C13.2078 136.268 12.5981 137.022 11.3788 137.022C11.0274 137.022 10.6968 136.96 10.3868 136.836C10.0768 136.692 9.7771 136.495 9.48777 136.247L9.11577 135.906C8.49577 136.361 7.9791 136.919 7.56577 137.58C7.15243 138.242 6.81143 139.017 6.54277 139.905V142.23C6.54277 142.912 6.54277 143.708 6.54277 144.617C6.56343 145.527 6.5841 146.374 6.60477 147.159L9.14677 147.624V148.74H1.61377ZM21.4564 135.038C20.8778 135.038 20.2888 135.204 19.6894 135.534C19.1108 135.865 18.6044 136.392 18.1704 137.115C17.7571 137.839 17.4884 138.8 17.3644 139.998H23.0064C23.7504 139.998 24.2361 139.843 24.4634 139.533C24.7114 139.223 24.8354 138.841 24.8354 138.386C24.8354 137.787 24.6804 137.239 24.3704 136.743C24.0811 136.227 23.6781 135.813 23.1614 135.503C22.6654 135.193 22.0971 135.038 21.4564 135.038ZM21.4254 149.143C19.3381 149.143 17.6641 148.472 16.4034 147.128C15.1428 145.764 14.5124 143.894 14.5124 141.517C14.5124 139.926 14.8328 138.541 15.4734 137.363C16.1348 136.185 17.0028 135.266 18.0774 134.604C19.1728 133.943 20.3611 133.612 21.6424 133.612C22.7171 133.612 23.6884 133.85 24.5564 134.325C25.4244 134.801 26.1168 135.483 26.6334 136.371C27.1501 137.239 27.4084 138.304 27.4084 139.564C27.4084 139.916 27.3878 140.246 27.3464 140.556C27.3051 140.846 27.2534 141.094 27.1914 141.3H17.3024C17.3438 143.202 17.8191 144.648 18.7284 145.64C19.6378 146.632 20.8364 147.128 22.3244 147.128C23.3164 147.128 24.1431 146.932 24.8044 146.539C25.4658 146.126 26.0754 145.599 26.6334 144.958L27.3774 145.547C26.7988 146.643 26.0134 147.521 25.0214 148.182C24.0294 148.823 22.8308 149.143 21.4254 149.143ZM41.5134 149.05C40.7694 149.05 40.1494 148.833 39.6534 148.399C39.1574 147.965 38.8474 147.387 38.7234 146.663C37.8761 147.49 37.1321 148.11 36.4914 148.523C35.8508 148.937 35.0758 149.143 34.1664 149.143C33.0298 149.143 32.0481 148.823 31.2214 148.182C30.4154 147.521 30.0124 146.55 30.0124 145.268C30.0124 144.669 30.1468 144.111 30.4154 143.594C30.7048 143.078 31.2214 142.571 31.9654 142.075C32.7094 141.579 33.7738 141.083 35.1584 140.587C35.6338 140.422 36.1814 140.246 36.8014 140.06C37.4214 139.874 38.0414 139.709 38.6614 139.564V138.789C38.6614 137.281 38.4341 136.278 37.9794 135.782C37.5248 135.286 36.7808 135.038 35.7474 135.038C35.5201 135.038 35.2618 135.049 34.9724 135.069C34.7038 135.09 34.4041 135.142 34.0734 135.224L33.4844 137.239C33.1951 138.231 32.6578 138.727 31.8724 138.727C31.0044 138.727 30.5188 138.304 30.4154 137.456C30.7048 136.278 31.3868 135.348 32.4614 134.666C33.5568 133.964 34.8898 133.612 36.4604 133.612C38.0931 133.612 39.3021 134.026 40.0874 134.852C40.8728 135.658 41.2654 137.043 41.2654 139.006V145.609C41.2654 146.271 41.3688 146.746 41.5754 147.035C41.7821 147.304 42.0508 147.438 42.3814 147.438C42.6501 147.438 42.8774 147.376 43.0634 147.252C43.2494 147.128 43.4251 146.963 43.5904 146.756L44.2104 147.438C43.8384 148.038 43.4251 148.461 42.9704 148.709C42.5364 148.937 42.0508 149.05 41.5134 149.05ZM32.7714 144.803C32.7714 145.63 33.0091 146.219 33.4844 146.57C33.9598 146.922 34.5488 147.097 35.2514 147.097C35.5614 147.097 35.8508 147.056 36.1194 146.973C36.4088 146.891 36.7498 146.736 37.1424 146.508C37.5351 146.26 38.0414 145.909 38.6614 145.454V140.711C38.1241 140.856 37.5971 141.021 37.0804 141.207C36.5638 141.373 36.1401 141.517 35.8094 141.641C34.9208 141.993 34.2594 142.354 33.8254 142.726C33.3914 143.098 33.1021 143.46 32.9574 143.811C32.8334 144.163 32.7714 144.493 32.7714 144.803ZM48.5749 141.455C48.5749 143.481 48.9779 144.979 49.7839 145.95C50.6106 146.901 51.6439 147.376 52.8839 147.376C53.5659 147.376 54.1652 147.242 54.6819 146.973C55.2192 146.684 55.7772 146.219 56.3559 145.578V136.991C55.6532 136.371 55.0229 135.948 54.4649 135.72C53.9069 135.493 53.3696 135.379 52.8529 135.379C52.0882 135.379 51.3752 135.596 50.7139 136.03C50.0732 136.444 49.5566 137.105 49.1639 138.014C48.7712 138.903 48.5749 140.05 48.5749 141.455ZM56.6659 149.05L56.4489 146.911C55.9116 147.614 55.2916 148.162 54.5889 148.554C53.9069 148.947 53.0802 149.143 52.1089 149.143C50.8482 149.143 49.7426 148.823 48.7919 148.182C47.8412 147.542 47.0972 146.653 46.5599 145.516C46.0432 144.359 45.7849 143.026 45.7849 141.517C45.7849 139.926 46.0742 138.541 46.6529 137.363C47.2316 136.185 48.0169 135.266 49.0089 134.604C50.0009 133.943 51.1272 133.612 52.3879 133.612C53.1112 133.612 53.8036 133.757 54.4649 134.046C55.1469 134.336 55.8082 134.863 56.4489 135.627V128.621L53.8139 128.311V127.226L58.6499 125.831L59.0839 126.079L58.9599 130.481V147.252L61.4709 147.624V148.74L56.6659 149.05ZM71.503 135.131V134.015H77.548V135.131L75.874 135.472L70.883 148.647C69.8497 151.396 68.8474 153.38 67.876 154.599C66.9254 155.839 65.8094 156.459 64.528 156.459C63.7634 156.459 63.0917 156.263 62.513 155.87C61.955 155.498 61.676 155.013 61.676 154.413C61.7794 153.959 62.0274 153.618 62.42 153.39C62.8334 153.163 63.2777 153.049 63.753 153.049C64.1664 153.049 64.5487 153.132 64.9 153.297C65.2514 153.483 65.6337 153.793 66.047 154.227L66.202 154.382C66.8634 153.824 67.4214 153.142 67.876 152.336C68.3307 151.551 68.7027 150.745 68.992 149.918L69.116 149.546L63.505 135.379L61.8 135.131V134.015H69.24V135.162L66.512 135.472L70.387 146.043L74.2 135.503L71.503 135.131ZM91.1297 149.143C90.055 149.143 89.1973 148.854 88.5567 148.275C87.916 147.697 87.5957 146.808 87.5957 145.609C87.5957 145.217 87.5957 144.834 87.5957 144.462C87.6163 144.07 87.6267 143.574 87.6267 142.974V135.658H85.0537V134.294L87.8127 133.953L88.6187 129.799H90.4787L90.2927 134.015H94.4777V135.658H90.2617V145.268C90.2617 146.054 90.4167 146.632 90.7267 147.004C91.0367 147.356 91.45 147.531 91.9667 147.531C92.318 147.531 92.6487 147.459 92.9587 147.314C93.2893 147.17 93.651 146.963 94.0437 146.694L94.7877 147.5C93.9403 148.596 92.721 149.143 91.1297 149.143ZM103.35 149.143C102.151 149.143 101.004 148.864 99.9087 148.306C98.834 147.728 97.9557 146.87 97.2737 145.733C96.5917 144.576 96.2507 143.15 96.2507 141.455C96.2507 139.74 96.5917 138.304 97.2737 137.146C97.9557 135.968 98.834 135.09 99.9087 134.511C101.004 133.912 102.151 133.612 103.35 133.612C104.548 133.612 105.685 133.912 106.76 134.511C107.855 135.09 108.744 135.968 109.426 137.146C110.128 138.304 110.48 139.74 110.48 141.455C110.48 143.15 110.128 144.576 109.426 145.733C108.744 146.87 107.855 147.728 106.76 148.306C105.685 148.864 104.548 149.143 103.35 149.143ZM103.35 147.748C104.693 147.748 105.726 147.221 106.45 146.167C107.173 145.093 107.535 143.522 107.535 141.455C107.535 139.368 107.173 137.777 106.45 136.681C105.726 135.586 104.693 135.038 103.35 135.038C102.006 135.038 100.973 135.586 100.25 136.681C99.547 137.777 99.1957 139.368 99.1957 141.455C99.1957 143.522 99.547 145.093 100.25 146.167C100.973 147.221 102.006 147.748 103.35 147.748ZM127.382 149.143C125.253 149.143 123.558 148.451 122.298 147.066C121.037 145.682 120.407 143.801 120.407 141.424C120.407 139.792 120.737 138.397 121.399 137.239C122.081 136.061 122.969 135.162 124.065 134.542C125.16 133.922 126.328 133.612 127.568 133.612C128.498 133.612 129.355 133.788 130.141 134.139C130.926 134.491 131.577 134.976 132.094 135.596C132.61 136.196 132.931 136.878 133.055 137.642C132.91 138.428 132.435 138.82 131.629 138.82C131.112 138.82 130.719 138.686 130.451 138.417C130.203 138.128 130.027 137.766 129.924 137.332L129.366 135.286C129.076 135.183 128.787 135.121 128.498 135.1C128.229 135.059 127.96 135.038 127.692 135.038C126.369 135.038 125.274 135.555 124.406 136.588C123.558 137.622 123.135 139.13 123.135 141.114C123.135 143.057 123.6 144.545 124.53 145.578C125.46 146.612 126.648 147.128 128.095 147.128C128.983 147.128 129.8 146.932 130.544 146.539C131.288 146.126 131.897 145.537 132.373 144.772L133.148 145.175C132.714 146.457 132.011 147.438 131.04 148.12C130.068 148.802 128.849 149.143 127.382 149.143ZM142.735 149.143C141.537 149.143 140.39 148.864 139.294 148.306C138.22 147.728 137.341 146.87 136.659 145.733C135.977 144.576 135.636 143.15 135.636 141.455C135.636 139.74 135.977 138.304 136.659 137.146C137.341 135.968 138.22 135.09 139.294 134.511C140.39 133.912 141.537 133.612 142.735 133.612C143.934 133.612 145.071 133.912 146.145 134.511C147.241 135.09 148.129 135.968 148.811 137.146C149.514 138.304 149.865 139.74 149.865 141.455C149.865 143.15 149.514 144.576 148.811 145.733C148.129 146.87 147.241 147.728 146.145 148.306C145.071 148.864 143.934 149.143 142.735 149.143ZM142.735 147.748C144.079 147.748 145.112 147.221 145.835 146.167C146.559 145.093 146.92 143.522 146.92 141.455C146.92 139.368 146.559 137.777 145.835 136.681C145.112 135.586 144.079 135.038 142.735 135.038C141.392 135.038 140.359 135.586 139.635 136.681C138.933 137.777 138.581 139.368 138.581 141.455C138.581 143.522 138.933 145.093 139.635 146.167C140.359 147.221 141.392 147.748 142.735 147.748ZM152.495 148.74V147.624L154.789 147.19C154.81 146.405 154.82 145.558 154.82 144.648C154.841 143.739 154.851 142.933 154.851 142.23V140.742C154.851 139.895 154.841 139.192 154.82 138.634C154.82 138.076 154.799 137.487 154.758 136.867L152.309 136.588V135.503L156.649 133.612L157.114 133.922L157.362 136.402C158.127 135.576 159.005 134.904 159.997 134.387C160.989 133.871 161.96 133.612 162.911 133.612C164.254 133.612 165.246 134.067 165.887 134.976C166.548 135.865 166.879 137.322 166.879 139.347V142.23C166.879 142.933 166.879 143.739 166.879 144.648C166.9 145.558 166.92 146.405 166.941 147.19L169.111 147.624V148.74H161.919V147.624L164.213 147.19C164.234 146.426 164.244 145.589 164.244 144.679C164.265 143.749 164.275 142.933 164.275 142.23V139.595C164.275 138.169 164.068 137.188 163.655 136.65C163.262 136.113 162.611 135.844 161.702 135.844C160.999 135.844 160.317 135.989 159.656 136.278C158.995 136.568 158.271 137.043 157.486 137.704V142.23C157.486 142.912 157.486 143.718 157.486 144.648C157.507 145.558 157.527 146.405 157.548 147.19L159.687 147.624V148.74H152.495ZM176.259 149.143C175.184 149.143 174.326 148.854 173.686 148.275C173.045 147.697 172.725 146.808 172.725 145.609C172.725 145.217 172.725 144.834 172.725 144.462C172.745 144.07 172.756 143.574 172.756 142.974V135.658H170.183V134.294L172.942 133.953L173.748 129.799H175.608L175.422 134.015H179.607V135.658H175.391V145.268C175.391 146.054 175.546 146.632 175.856 147.004C176.166 147.356 176.579 147.531 177.096 147.531C177.447 147.531 177.778 147.459 178.088 147.314C178.418 147.17 178.78 146.963 179.173 146.694L179.917 147.5C179.069 148.596 177.85 149.143 176.259 149.143ZM181.07 148.74V147.624L183.395 147.19C183.415 146.405 183.426 145.558 183.426 144.648C183.446 143.718 183.457 142.912 183.457 142.23V140.773C183.457 139.926 183.446 139.223 183.426 138.665C183.426 138.087 183.405 137.487 183.364 136.867L180.884 136.588V135.503L185.658 133.612L186.123 133.922L186.03 138.138V142.23C186.03 142.912 186.03 143.718 186.03 144.648C186.05 145.558 186.071 146.405 186.092 147.19L188.262 147.624V148.74H181.07ZM184.728 130.202C184.149 130.202 183.653 130.016 183.24 129.644C182.847 129.272 182.651 128.797 182.651 128.218C182.651 127.619 182.847 127.144 183.24 126.792C183.653 126.42 184.149 126.234 184.728 126.234C185.306 126.234 185.792 126.42 186.185 126.792C186.598 127.144 186.805 127.619 186.805 128.218C186.805 128.797 186.598 129.272 186.185 129.644C185.792 130.016 185.306 130.202 184.728 130.202ZM190.458 148.74V147.624L192.752 147.19C192.773 146.405 192.783 145.558 192.783 144.648C192.804 143.739 192.814 142.933 192.814 142.23V140.742C192.814 139.895 192.804 139.192 192.783 138.634C192.783 138.076 192.762 137.487 192.721 136.867L190.272 136.588V135.503L194.612 133.612L195.077 133.922L195.325 136.402C196.09 135.576 196.968 134.904 197.96 134.387C198.952 133.871 199.923 133.612 200.874 133.612C202.217 133.612 203.209 134.067 203.85 134.976C204.511 135.865 204.842 137.322 204.842 139.347V142.23C204.842 142.933 204.842 143.739 204.842 144.648C204.863 145.558 204.883 146.405 204.904 147.19L207.074 147.624V148.74H199.882V147.624L202.176 147.19C202.197 146.426 202.207 145.589 202.207 144.679C202.228 143.749 202.238 142.933 202.238 142.23V139.595C202.238 138.169 202.031 137.188 201.618 136.65C201.225 136.113 200.574 135.844 199.665 135.844C198.962 135.844 198.28 135.989 197.619 136.278C196.958 136.568 196.234 137.043 195.449 137.704V142.23C195.449 142.912 195.449 143.718 195.449 144.648C195.47 145.558 195.49 146.405 195.511 147.19L197.65 147.624V148.74H190.458ZM214.779 149.143C213.519 149.143 212.527 148.73 211.803 147.903C211.08 147.056 210.729 145.609 210.749 143.563L210.842 135.844L208.641 135.379V134.263L213.198 133.829L213.508 134.139L213.353 138.479V143.284C213.353 144.628 213.56 145.578 213.973 146.136C214.387 146.674 215.007 146.942 215.833 146.942C217.28 146.942 218.727 146.271 220.173 144.927L220.266 135.813L218.065 135.379V134.263L222.56 133.829L222.87 134.139L222.777 138.479V147.19L224.885 147.624V148.74L220.576 148.988L220.266 146.229C219.44 147.242 218.551 147.986 217.6 148.461C216.67 148.916 215.73 149.143 214.779 149.143ZM233.976 135.038C233.397 135.038 232.808 135.204 232.209 135.534C231.63 135.865 231.124 136.392 230.69 137.115C230.277 137.839 230.008 138.8 229.884 139.998H235.526C236.27 139.998 236.756 139.843 236.983 139.533C237.231 139.223 237.355 138.841 237.355 138.386C237.355 137.787 237.2 137.239 236.89 136.743C236.601 136.227 236.198 135.813 235.681 135.503C235.185 135.193 234.617 135.038 233.976 135.038ZM233.945 149.143C231.858 149.143 230.184 148.472 228.923 147.128C227.662 145.764 227.032 143.894 227.032 141.517C227.032 139.926 227.352 138.541 227.993 137.363C228.654 136.185 229.522 135.266 230.597 134.604C231.692 133.943 232.881 133.612 234.162 133.612C235.237 133.612 236.208 133.85 237.076 134.325C237.944 134.801 238.636 135.483 239.153 136.371C239.67 137.239 239.928 138.304 239.928 139.564C239.928 139.916 239.907 140.246 239.866 140.556C239.825 140.846 239.773 141.094 239.711 141.3H229.822C229.863 143.202 230.339 144.648 231.248 145.64C232.157 146.632 233.356 147.128 234.844 147.128C235.836 147.128 236.663 146.932 237.324 146.539C237.985 146.126 238.595 145.599 239.153 144.958L239.897 145.547C239.318 146.643 238.533 147.521 237.541 148.182C236.549 148.823 235.35 149.143 233.945 149.143ZM258.502 135.131V134.015H264.547V135.131L262.873 135.472L257.882 148.647C256.849 151.396 255.846 153.38 254.875 154.599C253.924 155.839 252.808 156.459 251.527 156.459C250.762 156.459 250.091 156.263 249.512 155.87C248.954 155.498 248.675 155.013 248.675 154.413C248.778 153.959 249.026 153.618 249.419 153.39C249.832 153.163 250.277 153.049 250.752 153.049C251.165 153.049 251.548 153.132 251.899 153.297C252.25 153.483 252.633 153.793 253.046 154.227L253.201 154.382C253.862 153.824 254.42 153.142 254.875 152.336C255.33 151.551 255.702 150.745 255.991 149.918L256.115 149.546L250.504 135.379L248.799 135.131V134.015H256.239V135.162L253.511 135.472L257.386 146.043L261.199 135.503L258.502 135.131ZM272.427 149.143C271.228 149.143 270.081 148.864 268.986 148.306C267.911 147.728 267.033 146.87 266.351 145.733C265.669 144.576 265.328 143.15 265.328 141.455C265.328 139.74 265.669 138.304 266.351 137.146C267.033 135.968 267.911 135.09 268.986 134.511C270.081 133.912 271.228 133.612 272.427 133.612C273.626 133.612 274.762 133.912 275.837 134.511C276.932 135.09 277.821 135.968 278.503 137.146C279.206 138.304 279.557 139.74 279.557 141.455C279.557 143.15 279.206 144.576 278.503 145.733C277.821 146.87 276.932 147.728 275.837 148.306C274.762 148.864 273.626 149.143 272.427 149.143ZM272.427 147.748C273.77 147.748 274.804 147.221 275.527 146.167C276.25 145.093 276.612 143.522 276.612 141.455C276.612 139.368 276.25 137.777 275.527 136.681C274.804 135.586 273.77 135.038 272.427 135.038C271.084 135.038 270.05 135.586 269.327 136.681C268.624 137.777 268.273 139.368 268.273 141.455C268.273 143.522 268.624 145.093 269.327 146.167C270.05 147.221 271.084 147.748 272.427 147.748ZM287.557 149.143C286.296 149.143 285.304 148.73 284.581 147.903C283.857 147.056 283.506 145.609 283.527 143.563L283.62 135.844L281.419 135.379V134.263L285.976 133.829L286.286 134.139L286.131 138.479V143.284C286.131 144.628 286.337 145.578 286.751 146.136C287.164 146.674 287.784 146.942 288.611 146.942C290.057 146.942 291.504 146.271 292.951 144.927L293.044 135.813L290.843 135.379V134.263L295.338 133.829L295.648 134.139L295.555 138.479V147.19L297.663 147.624V148.74L293.354 148.988L293.044 146.229C292.217 147.242 291.328 147.986 290.378 148.461C289.448 148.916 288.507 149.143 287.557 149.143ZM300.019 148.74V147.624L302.251 147.221C302.272 146.436 302.282 145.589 302.282 144.679C302.303 143.749 302.313 142.933 302.313 142.23V140.742C302.313 139.895 302.303 139.192 302.282 138.634C302.282 138.076 302.261 137.487 302.22 136.867L299.771 136.588V135.503L304.111 133.612L304.576 133.922L304.917 137.58C305.434 136.34 306.095 135.369 306.901 134.666C307.728 133.964 308.554 133.612 309.381 133.612C309.856 133.612 310.301 133.716 310.714 133.922C311.127 134.129 311.427 134.408 311.613 134.759C311.613 136.268 311.003 137.022 309.784 137.022C309.433 137.022 309.102 136.96 308.792 136.836C308.482 136.692 308.182 136.495 307.893 136.247L307.521 135.906C306.901 136.361 306.384 136.919 305.971 137.58C305.558 138.242 305.217 139.017 304.948 139.905V142.23C304.948 142.912 304.948 143.708 304.948 144.617C304.969 145.527 304.989 146.374 305.01 147.159L307.552 147.624V148.74H300.019ZM487.156 149.143C486.598 149.143 486.123 148.947 485.73 148.554C485.358 148.141 485.172 147.666 485.172 147.128C485.172 146.591 485.358 146.126 485.73 145.733C486.123 145.32 486.598 145.113 487.156 145.113C487.714 145.113 488.19 145.32 488.582 145.733C488.975 146.126 489.171 146.591 489.171 147.128C489.171 147.666 488.975 148.141 488.582 148.554C488.19 148.947 487.714 149.143 487.156 149.143ZM493.387 134.449C493.387 136.392 492.354 137.694 490.287 138.355L489.233 138.727C488.593 138.934 488.19 139.141 488.024 139.347C487.859 139.554 487.776 139.916 487.776 140.432V142.137H486.567L486.195 140.835C486.009 140.236 485.875 139.771 485.792 139.44C485.73 139.11 485.699 138.851 485.699 138.665C485.699 138.19 485.885 137.797 486.257 137.487C486.629 137.177 487.27 136.888 488.179 136.619L489.946 136.061C491.104 135.669 491.682 134.956 491.682 133.922C491.682 133.53 491.61 133.147 491.465 132.775C491.321 132.383 491.124 132 490.876 131.628L486.815 130.915C485.906 130.75 485.307 130.533 485.017 130.264C484.728 129.975 484.583 129.634 484.583 129.241C484.583 128.766 484.728 128.404 485.017 128.156C485.307 127.888 485.73 127.681 486.288 127.536C486.95 127.598 487.683 127.805 488.489 128.156C489.295 128.508 490.07 128.983 490.814 129.582C491.558 130.182 492.168 130.895 492.643 131.721C493.139 132.548 493.387 133.457 493.387 134.449Z" fill="#110F36"/>
<path d="M345.342 149.329C343.358 149.329 341.55 148.937 339.917 148.151C338.285 147.345 336.983 146.147 336.011 144.555C335.061 142.964 334.585 140.959 334.585 138.541C334.585 136.702 334.875 135.111 335.453 133.767C336.053 132.424 336.859 131.308 337.871 130.419C338.905 129.531 340.083 128.869 341.405 128.435C342.728 128.001 344.113 127.784 345.559 127.784C346.737 127.784 347.812 127.919 348.783 128.187C349.755 128.435 350.705 128.818 351.635 129.334L351.759 134.139H349.403L348.504 130.078C347.802 129.727 347.058 129.551 346.272 129.551C345.177 129.551 344.154 129.861 343.203 130.481C342.273 131.101 341.519 132.083 340.94 133.426C340.362 134.749 340.072 136.464 340.072 138.572C340.072 140.68 340.351 142.396 340.909 143.718C341.467 145.02 342.201 145.981 343.11 146.601C344.04 147.221 345.053 147.531 346.148 147.531C346.582 147.531 347.016 147.48 347.45 147.376C347.884 147.273 348.318 147.128 348.752 146.942L349.62 142.974H351.976L351.852 147.748C351.026 148.203 350.065 148.575 348.969 148.864C347.895 149.174 346.686 149.329 345.342 149.329ZM361.589 149.205C359.977 149.205 358.582 148.875 357.404 148.213C356.226 147.531 355.316 146.591 354.676 145.392C354.035 144.173 353.715 142.768 353.715 141.176C353.715 139.585 354.056 138.2 354.738 137.022C355.44 135.844 356.391 134.925 357.59 134.263C358.788 133.602 360.121 133.271 361.589 133.271C363.056 133.271 364.379 133.592 365.557 134.232C366.755 134.873 367.706 135.793 368.409 136.991C369.111 138.169 369.463 139.564 369.463 141.176C369.463 142.788 369.142 144.194 368.502 145.392C367.861 146.591 366.952 147.531 365.774 148.213C364.596 148.875 363.201 149.205 361.589 149.205ZM361.589 147.593C362.457 147.593 363.108 147.087 363.542 146.074C363.976 145.062 364.193 143.46 364.193 141.269C364.193 139.058 363.976 137.446 363.542 136.433C363.108 135.421 362.457 134.914 361.589 134.914C360.7 134.914 360.039 135.421 359.605 136.433C359.171 137.446 358.954 139.058 358.954 141.269C358.954 143.46 359.171 145.062 359.605 146.074C360.039 147.087 360.7 147.593 361.589 147.593ZM376.694 141.331C376.694 143.026 376.994 144.318 377.593 145.206C378.192 146.074 378.967 146.508 379.918 146.508C380.621 146.508 381.261 146.271 381.84 145.795V136.557C381.282 136.123 380.672 135.906 380.011 135.906C379.06 135.906 378.265 136.351 377.624 137.239C377.004 138.128 376.694 139.492 376.694 141.331ZM382.243 149.081L381.995 147.314C380.796 148.575 379.339 149.205 377.624 149.205C376.467 149.205 375.413 148.906 374.462 148.306C373.532 147.707 372.798 146.829 372.261 145.671C371.724 144.493 371.455 143.067 371.455 141.393C371.455 139.699 371.775 138.252 372.416 137.053C373.077 135.834 373.925 134.904 374.958 134.263C376.012 133.602 377.118 133.271 378.275 133.271C379.081 133.271 379.784 133.416 380.383 133.705C380.982 133.974 381.53 134.377 382.026 134.914V129.241L379.856 128.931V127.629L386.397 126.234L386.893 126.544L386.769 130.884V146.973L388.288 147.283V148.74L382.243 149.081ZM397.518 134.883C396.939 134.883 396.402 135.245 395.906 135.968C395.431 136.671 395.162 137.973 395.1 139.874H397.735C398.479 139.874 398.975 139.73 399.223 139.44C399.492 139.13 399.626 138.624 399.626 137.921C399.626 136.888 399.419 136.123 399.006 135.627C398.593 135.131 398.097 134.883 397.518 134.883ZM397.58 149.205C396.071 149.205 394.738 148.895 393.581 148.275C392.424 147.635 391.514 146.725 390.853 145.547C390.192 144.349 389.861 142.923 389.861 141.269C389.861 139.533 390.243 138.076 391.008 136.898C391.793 135.7 392.796 134.801 394.015 134.201C395.234 133.581 396.505 133.271 397.828 133.271C399.192 133.271 400.349 133.561 401.3 134.139C402.271 134.718 403.005 135.503 403.501 136.495C403.997 137.467 404.245 138.583 404.245 139.843C404.245 140.443 404.183 140.99 404.059 141.486H395.1C395.203 143.119 395.648 144.328 396.433 145.113C397.239 145.878 398.179 146.26 399.254 146.26C400.101 146.26 400.825 146.105 401.424 145.795C402.023 145.465 402.55 145.062 403.005 144.586L404.09 145.578C403.449 146.798 402.581 147.707 401.486 148.306C400.391 148.906 399.089 149.205 397.58 149.205ZM416.009 147.531C417.063 147.531 417.9 147.139 418.52 146.353C419.161 145.568 419.626 144.504 419.915 143.16C420.205 141.796 420.349 140.257 420.349 138.541C420.349 136.826 420.205 135.297 419.915 133.953C419.626 132.61 419.161 131.546 418.52 130.76C417.9 129.975 417.063 129.582 416.009 129.582C414.976 129.582 414.139 129.975 413.498 130.76C412.858 131.546 412.393 132.61 412.103 133.953C411.814 135.297 411.669 136.826 411.669 138.541C411.669 140.257 411.814 141.796 412.103 143.16C412.393 144.504 412.858 145.568 413.498 146.353C414.139 147.139 414.976 147.531 416.009 147.531ZM420.411 155.126C418.283 155.126 416.609 154.558 415.389 153.421C414.17 152.285 413.509 150.817 413.405 149.019C412.083 148.668 410.874 148.058 409.778 147.19C408.683 146.302 407.805 145.144 407.143 143.718C406.503 142.272 406.182 140.546 406.182 138.541C406.182 136.764 406.451 135.204 406.988 133.86C407.526 132.517 408.259 131.401 409.189 130.512C410.119 129.603 411.173 128.921 412.351 128.466C413.529 128.012 414.749 127.784 416.009 127.784C417.291 127.784 418.51 128.012 419.667 128.466C420.845 128.9 421.899 129.562 422.829 130.45C423.759 131.339 424.493 132.465 425.03 133.829C425.568 135.173 425.836 136.743 425.836 138.541C425.836 140.567 425.495 142.313 424.813 143.78C424.131 145.227 423.222 146.395 422.085 147.283C420.969 148.151 419.719 148.751 418.334 149.081C418.376 150.239 418.706 151.138 419.326 151.778C419.946 152.44 420.763 152.77 421.775 152.77C422.085 152.77 422.437 152.739 422.829 152.677C423.222 152.636 423.615 152.543 424.007 152.398L424.689 154.134C424.173 154.465 423.542 154.713 422.798 154.878C422.054 155.044 421.259 155.126 420.411 155.126ZM438.737 149.081L438.551 146.477C437.889 147.345 437.135 148.017 436.288 148.492C435.44 148.968 434.521 149.205 433.529 149.205C432.206 149.205 431.142 148.792 430.336 147.965C429.53 147.118 429.137 145.671 429.158 143.625L429.282 136.061L427.484 135.658V134.356L433.808 133.457L434.304 133.798L434.149 138.169V143.656C434.149 144.607 434.293 145.268 434.583 145.64C434.893 146.012 435.306 146.198 435.823 146.198C436.257 146.198 436.701 146.064 437.156 145.795C437.631 145.527 438.075 145.196 438.489 144.803L438.613 136.03L436.908 135.658V134.449L443.077 133.457L443.573 133.798L443.48 138.169V146.973L445.092 147.314V148.771L438.737 149.081ZM454.19 134.883C453.611 134.883 453.074 135.245 452.578 135.968C452.103 136.671 451.834 137.973 451.772 139.874H454.407C455.151 139.874 455.647 139.73 455.895 139.44C456.164 139.13 456.298 138.624 456.298 137.921C456.298 136.888 456.091 136.123 455.678 135.627C455.265 135.131 454.769 134.883 454.19 134.883ZM454.252 149.205C452.743 149.205 451.41 148.895 450.253 148.275C449.096 147.635 448.186 146.725 447.525 145.547C446.864 144.349 446.533 142.923 446.533 141.269C446.533 139.533 446.915 138.076 447.68 136.898C448.465 135.7 449.468 134.801 450.687 134.201C451.906 133.581 453.177 133.271 454.5 133.271C455.864 133.271 457.021 133.561 457.972 134.139C458.943 134.718 459.677 135.503 460.173 136.495C460.669 137.467 460.917 138.583 460.917 139.843C460.917 140.443 460.855 140.99 460.731 141.486H451.772C451.875 143.119 452.32 144.328 453.105 145.113C453.911 145.878 454.851 146.26 455.926 146.26C456.773 146.26 457.497 146.105 458.096 145.795C458.695 145.465 459.222 145.062 459.677 144.586L460.762 145.578C460.121 146.798 459.253 147.707 458.158 148.306C457.063 148.906 455.761 149.205 454.252 149.205ZM468.124 149.205C466.161 149.205 464.363 148.73 462.73 147.779L462.823 143.997H465.303L465.83 147.066C466.202 147.211 466.574 147.325 466.946 147.407C467.318 147.469 467.721 147.5 468.155 147.5C469.044 147.5 469.726 147.356 470.201 147.066C470.676 146.756 470.914 146.291 470.914 145.671C470.914 145.196 470.738 144.783 470.387 144.431C470.036 144.08 469.343 143.76 468.31 143.47L466.636 142.974C465.437 142.623 464.507 142.055 463.846 141.269C463.205 140.484 462.885 139.513 462.885 138.355C462.885 136.929 463.443 135.731 464.559 134.759C465.675 133.767 467.277 133.271 469.364 133.271C470.273 133.271 471.11 133.385 471.875 133.612C472.66 133.819 473.456 134.129 474.262 134.542L474.045 137.921H471.565L470.945 135.255C470.511 135.09 469.943 135.007 469.24 135.007C468.537 135.007 467.969 135.152 467.535 135.441C467.122 135.731 466.915 136.165 466.915 136.743C466.915 137.157 467.08 137.529 467.411 137.859C467.742 138.169 468.444 138.49 469.519 138.82L471.038 139.254C472.505 139.688 473.559 140.308 474.2 141.114C474.841 141.92 475.161 142.902 475.161 144.059C475.161 145.692 474.531 146.963 473.27 147.872C472.03 148.761 470.315 149.205 468.124 149.205Z" fill="#F2F2F2"/>
<g filter="url(#filter1_i_329_119)">
<path d="M332.601 149.348C330.553 149.348 328.686 148.943 327.001 148.132C325.316 147.3 323.972 146.063 322.969 144.42C321.988 142.778 321.497 140.708 321.497 138.212C321.497 136.314 321.796 134.671 322.393 133.284C323.012 131.898 323.844 130.746 324.889 129.828C325.956 128.911 327.172 128.228 328.537 127.78C329.902 127.332 331.332 127.108 332.825 127.108C334.041 127.108 335.15 127.247 336.153 127.524C337.156 127.78 338.137 128.175 339.097 128.708L339.225 133.668H336.793L335.865 129.476C335.14 129.114 334.372 128.932 333.561 128.932C332.43 128.932 331.374 129.252 330.393 129.892C329.433 130.532 328.654 131.546 328.057 132.932C327.46 134.298 327.161 136.068 327.161 138.244C327.161 140.42 327.449 142.191 328.025 143.556C328.601 144.9 329.358 145.892 330.297 146.532C331.257 147.172 332.302 147.492 333.433 147.492C333.881 147.492 334.329 147.439 334.777 147.332C335.225 147.226 335.673 147.076 336.121 146.884L337.017 142.788H339.449L339.321 147.716C338.468 148.186 337.476 148.57 336.345 148.868C335.236 149.188 333.988 149.348 332.601 149.348ZM349.371 149.22C347.707 149.22 346.267 148.879 345.051 148.196C343.835 147.492 342.897 146.522 342.235 145.284C341.574 144.026 341.243 142.575 341.243 140.932C341.243 139.29 341.595 137.86 342.299 136.644C343.025 135.428 344.006 134.479 345.243 133.796C346.481 133.114 347.857 132.772 349.371 132.772C350.886 132.772 352.251 133.103 353.467 133.764C354.705 134.426 355.686 135.375 356.411 136.612C357.137 137.828 357.499 139.268 357.499 140.932C357.499 142.596 357.169 144.047 356.507 145.284C355.846 146.522 354.907 147.492 353.691 148.196C352.475 148.879 351.035 149.22 349.371 149.22ZM349.371 147.556C350.267 147.556 350.939 147.034 351.387 145.988C351.835 144.943 352.059 143.29 352.059 141.028C352.059 138.746 351.835 137.082 351.387 136.036C350.939 134.991 350.267 134.468 349.371 134.468C348.454 134.468 347.771 134.991 347.323 136.036C346.875 137.082 346.651 138.746 346.651 141.028C346.651 143.29 346.875 144.943 347.323 145.988C347.771 147.034 348.454 147.556 349.371 147.556ZM364.964 141.092C364.964 142.842 365.273 144.175 365.892 145.092C366.51 145.988 367.31 146.436 368.292 146.436C369.017 146.436 369.678 146.191 370.276 145.7V136.164C369.7 135.716 369.07 135.492 368.388 135.492C367.406 135.492 366.585 135.951 365.924 136.868C365.284 137.786 364.964 139.194 364.964 141.092ZM370.692 149.092L370.436 147.268C369.198 148.57 367.694 149.22 365.924 149.22C364.729 149.22 363.641 148.911 362.66 148.292C361.7 147.674 360.942 146.767 360.388 145.572C359.833 144.356 359.556 142.884 359.556 141.156C359.556 139.407 359.886 137.914 360.548 136.676C361.23 135.418 362.105 134.458 363.172 133.796C364.26 133.114 365.401 132.772 366.596 132.772C367.428 132.772 368.153 132.922 368.772 133.22C369.39 133.498 369.956 133.914 370.468 134.468V128.612L368.228 128.292V126.948L374.98 125.508L375.492 125.828L375.364 130.308V146.916L376.932 147.236V148.74L370.692 149.092ZM386.46 134.436C385.862 134.436 385.308 134.81 384.796 135.556C384.305 136.282 384.028 137.626 383.964 139.588H386.684C387.452 139.588 387.964 139.439 388.22 139.14C388.497 138.82 388.636 138.298 388.636 137.572C388.636 136.506 388.422 135.716 387.996 135.204C387.569 134.692 387.057 134.436 386.46 134.436ZM386.524 149.22C384.966 149.22 383.59 148.9 382.396 148.26C381.201 147.599 380.262 146.66 379.58 145.444C378.897 144.207 378.556 142.735 378.556 141.028C378.556 139.236 378.95 137.732 379.74 136.516C380.55 135.279 381.585 134.351 382.844 133.732C384.102 133.092 385.414 132.772 386.78 132.772C388.188 132.772 389.382 133.071 390.364 133.668C391.366 134.266 392.124 135.076 392.636 136.1C393.148 137.103 393.404 138.255 393.404 139.556C393.404 140.175 393.34 140.74 393.212 141.252H383.964C384.07 142.938 384.529 144.186 385.34 144.996C386.172 145.786 387.142 146.18 388.252 146.18C389.126 146.18 389.873 146.02 390.492 145.7C391.11 145.359 391.654 144.943 392.124 144.452L393.244 145.476C392.582 146.735 391.686 147.674 390.556 148.292C389.425 148.911 388.081 149.22 386.524 149.22ZM405.547 147.492C406.635 147.492 407.499 147.087 408.139 146.276C408.801 145.466 409.281 144.367 409.579 142.98C409.878 141.572 410.027 139.983 410.027 138.212C410.027 136.442 409.878 134.863 409.579 133.476C409.281 132.09 408.801 130.991 408.139 130.18C407.499 129.37 406.635 128.964 405.547 128.964C404.481 128.964 403.617 129.37 402.955 130.18C402.294 130.991 401.814 132.09 401.515 133.476C401.217 134.863 401.067 136.442 401.067 138.212C401.067 139.983 401.217 141.572 401.515 142.98C401.814 144.367 402.294 145.466 402.955 146.276C403.617 147.087 404.481 147.492 405.547 147.492ZM410.091 155.332C407.894 155.332 406.166 154.746 404.907 153.572C403.649 152.399 402.966 150.884 402.859 149.028C401.494 148.666 400.246 148.036 399.115 147.14C397.985 146.223 397.078 145.028 396.395 143.556C395.734 142.063 395.403 140.282 395.403 138.212C395.403 136.378 395.681 134.767 396.235 133.38C396.79 131.994 397.547 130.842 398.507 129.924C399.467 128.986 400.555 128.282 401.771 127.812C402.987 127.343 404.246 127.108 405.547 127.108C406.87 127.108 408.129 127.343 409.323 127.812C410.539 128.26 411.627 128.943 412.587 129.86C413.547 130.778 414.305 131.94 414.859 133.348C415.414 134.735 415.691 136.356 415.691 138.212C415.691 140.303 415.339 142.106 414.635 143.62C413.931 145.114 412.993 146.319 411.819 147.236C410.667 148.132 409.377 148.751 407.947 149.092C407.99 150.287 408.331 151.215 408.971 151.876C409.611 152.559 410.454 152.9 411.499 152.9C411.819 152.9 412.182 152.868 412.587 152.804C412.993 152.762 413.398 152.666 413.803 152.516L414.507 154.308C413.974 154.65 413.323 154.906 412.555 155.076C411.787 155.247 410.966 155.332 410.091 155.332ZM429.008 149.092L428.816 146.404C428.133 147.3 427.355 147.994 426.48 148.484C425.605 148.975 424.656 149.22 423.632 149.22C422.267 149.22 421.168 148.794 420.336 147.94C419.504 147.066 419.099 145.572 419.12 143.46L419.248 135.652L417.392 135.236V133.892L423.92 132.964L424.432 133.316L424.272 137.828V143.492C424.272 144.474 424.421 145.156 424.72 145.54C425.04 145.924 425.467 146.116 426 146.116C426.448 146.116 426.907 145.978 427.376 145.7C427.867 145.423 428.325 145.082 428.752 144.676L428.88 135.62L427.12 135.236V133.988L433.488 132.964L434 133.316L433.904 137.828V146.916L435.568 147.268V148.772L429.008 149.092ZM444.96 134.436C444.362 134.436 443.808 134.81 443.296 135.556C442.805 136.282 442.528 137.626 442.464 139.588H445.184C445.952 139.588 446.464 139.439 446.72 139.14C446.997 138.82 447.136 138.298 447.136 137.572C447.136 136.506 446.922 135.716 446.496 135.204C446.069 134.692 445.557 134.436 444.96 134.436ZM445.024 149.22C443.466 149.22 442.09 148.9 440.896 148.26C439.701 147.599 438.762 146.66 438.08 145.444C437.397 144.207 437.056 142.735 437.056 141.028C437.056 139.236 437.45 137.732 438.24 136.516C439.05 135.279 440.085 134.351 441.344 133.732C442.602 133.092 443.914 132.772 445.28 132.772C446.688 132.772 447.882 133.071 448.864 133.668C449.866 134.266 450.624 135.076 451.136 136.1C451.648 137.103 451.904 138.255 451.904 139.556C451.904 140.175 451.84 140.74 451.712 141.252H442.464C442.57 142.938 443.029 144.186 443.84 144.996C444.672 145.786 445.642 146.18 446.752 146.18C447.626 146.18 448.373 146.02 448.992 145.7C449.61 145.359 450.154 144.943 450.624 144.452L451.744 145.476C451.082 146.735 450.186 147.674 449.056 148.292C447.925 148.911 446.581 149.22 445.024 149.22ZM459.343 149.22C457.317 149.22 455.461 148.73 453.775 147.748L453.871 143.844H456.431L456.975 147.012C457.359 147.162 457.743 147.279 458.127 147.364C458.511 147.428 458.927 147.46 459.375 147.46C460.293 147.46 460.997 147.311 461.487 147.012C461.978 146.692 462.223 146.212 462.223 145.572C462.223 145.082 462.042 144.655 461.679 144.292C461.317 143.93 460.602 143.599 459.535 143.3L457.807 142.788C456.57 142.426 455.61 141.839 454.927 141.028C454.266 140.218 453.935 139.215 453.935 138.02C453.935 136.548 454.511 135.311 455.663 134.308C456.815 133.284 458.469 132.772 460.623 132.772C461.562 132.772 462.426 132.89 463.215 133.124C464.026 133.338 464.847 133.658 465.679 134.084L465.455 137.572H462.895L462.255 134.82C461.807 134.65 461.221 134.564 460.495 134.564C459.77 134.564 459.183 134.714 458.735 135.012C458.309 135.311 458.095 135.759 458.095 136.356C458.095 136.783 458.266 137.167 458.607 137.508C458.949 137.828 459.674 138.159 460.783 138.5L462.351 138.948C463.866 139.396 464.954 140.036 465.615 140.868C466.277 141.7 466.607 142.714 466.607 143.908C466.607 145.594 465.957 146.906 464.655 147.844C463.375 148.762 461.605 149.22 459.343 149.22ZM474.354 149.22C472.924 149.22 471.804 148.879 470.994 148.196C470.183 147.492 469.778 146.351 469.778 144.772C469.778 144.218 469.778 143.706 469.778 143.236C469.799 142.746 469.81 142.191 469.81 141.572V135.46H467.73V133.572L470.098 133.252L471.698 128.772H474.962L474.898 133.284H478.258V135.46H474.898V144.42C474.898 145.167 475.047 145.722 475.346 146.084C475.666 146.426 476.06 146.596 476.53 146.596C477.084 146.596 477.66 146.362 478.258 145.892L479.058 146.66C478.631 147.471 478.034 148.1 477.266 148.548C476.519 148.996 475.548 149.22 474.354 149.22Z" fill="#FFBE1A"/>
</g>
<defs>
<filter id="filter0_i_329_119" x="387.822" y="39.1973" width="20.646" height="69.6582" filterUnits="userSpaceOnUse" color-interpolation-filters="sRGB">
<feFlood flood-opacity="0" result="BackgroundImageFix"/>
<feBlend mode="normal" in="SourceGraphic" in2="BackgroundImageFix" result="shape"/>
<feColorMatrix in="SourceAlpha" type="matrix" values="0 0 0 0 0 0 0 0 0 0 0 0 0 0 0 0 0 0 127 0" result="hardAlpha"/>
<feOffset dy="4"/>
<feGaussianBlur stdDeviation="2"/>
<feComposite in2="hardAlpha" operator="arithmetic" k2="-1" k3="1"/>
<feColorMatrix type="matrix" values="0 0 0 0 0 0 0 0 0 0 0 0 0 0 0 0 0 0 0.25 0"/>
<feBlend mode="normal" in2="shape" result="effect1_innerShadow_329_119"/>
</filter>
<filter id="filter1_i_329_119" x="321.497" y="125.508" width="157.561" height="33.8237" filterUnits="userSpaceOnUse" color-interpolation-filters="sRGB">
<feFlood flood-opacity="0" result="BackgroundImageFix"/>
<feBlend mode="normal" in="SourceGraphic" in2="BackgroundImageFix" result="shape"/>
<feColorMatrix in="SourceAlpha" type="matrix" values="0 0 0 0 0 0 0 0 0 0 0 0 0 0 0 0 0 0 127 0" result="hardAlpha"/>
<feOffset dy="4"/>
<feGaussianBlur stdDeviation="2"/>
<feComposite in2="hardAlpha" operator="arithmetic" k2="-1" k3="1"/>
<feColorMatrix type="matrix" values="0 0 0 0 0 0 0 0 0 0 0 0 0 0 0 0 0 0 0.25 0"/>
<feBlend mode="normal" in2="shape" result="effect1_innerShadow_329_119"/>
</filter>
</defs>
</svg>
