<svg width="810" height="812" viewBox="0 0 810 812" fill="none" xmlns="http://www.w3.org/2000/svg">
<g clip-path="url(#clip0_329_330)">
<path d="M52.2207 651.621H558.348C558.348 651.621 527.531 696.408 426.762 680.658C325.993 664.908 342.748 655.255 286.921 673.037C231.094 690.819 167.013 710.125 111.247 701.488C55.4818 692.851 52.2207 651.621 52.2207 651.621Z" fill="white" stroke="#1A1A1A" stroke-width="3.51079" stroke-linecap="round" stroke-linejoin="round"/>
<path d="M293.21 632.653C279.956 604.057 305.428 550.316 338.06 527.7C378.391 499.748 450.844 522.344 456.955 525.86C459.265 520.917 495.924 446.111 570.563 443.321C628.316 441.162 654.982 459.958 677.472 530.463C679.382 529.683 708.052 531.393 726.505 549.317C748.637 570.816 746.558 620.128 726.421 651.62H316.623C302.056 646.92 296 638.672 293.21 632.653Z" stroke="#1A1A1A" stroke-width="5.26619" stroke-linecap="round" stroke-linejoin="round"/>
<path d="M647.763 136.245C647.763 132.586 647.044 128.964 645.647 125.583C644.25 122.203 642.203 119.132 639.623 116.545C637.042 113.958 633.978 111.906 630.607 110.506C627.235 109.106 623.621 108.385 619.971 108.385H229.966C226.316 108.385 222.702 109.106 219.33 110.506C215.958 111.906 212.895 113.958 210.314 116.545C207.733 119.132 205.686 122.203 204.29 125.583C202.893 128.964 202.174 132.586 202.174 136.245V136.555H647.763V136.245Z" fill="#110F36" stroke="#1A1A1A" stroke-width="1.7554" stroke-linecap="round" stroke-linejoin="round"/>
<path d="M647.761 163.176H570.563V186.368H647.761V163.176Z" fill="#110F36" stroke="#1A1A1A" stroke-width="1.7554" stroke-linecap="round" stroke-linejoin="round"/>
<path d="M647.761 186.368H570.563V320.495H647.761V186.368Z" fill="white" stroke="#1A1A1A" stroke-width="3.51079" stroke-linecap="round" stroke-linejoin="round"/>
<path d="M570.563 320.495V409.273H619.973C623.622 409.273 627.236 408.552 630.608 407.152C633.979 405.752 637.043 403.699 639.623 401.112C642.204 398.525 644.25 395.453 645.647 392.073C647.043 388.693 647.761 385.07 647.761 381.412V320.495H570.563Z" fill="#110F36" stroke="#1A1A1A" stroke-width="1.7554" stroke-linecap="round" stroke-linejoin="round"/>
<path d="M647.761 136.555V163.176H570.563V409.273H229.968C226.318 409.274 222.704 408.553 219.332 407.153C215.959 405.753 212.895 403.701 210.315 401.114C207.734 398.526 205.686 395.455 204.29 392.074C202.893 388.694 202.175 385.071 202.175 381.412V136.555H647.761Z" fill="white" stroke="#1A1A1A" stroke-width="3.51079" stroke-linecap="round" stroke-linejoin="round"/>
<path d="M570.563 163.176H202.175" stroke="#1A1A1A" stroke-width="3.51079" stroke-linecap="round" stroke-linejoin="round"/>
<path d="M276.851 163.176V409.273" stroke="#1A1A1A" stroke-width="3.51079" stroke-linecap="round" stroke-linejoin="round"/>
<path d="M533.097 181.13H301.708V277.299H533.097V181.13Z" stroke="#1A1A1A" stroke-width="3.51079" stroke-linecap="round" stroke-linejoin="round" stroke-dasharray="21.06 21.06"/>
<path d="M526.462 270.647V187.782H308.344V270.647H526.462Z" fill="white" stroke="#1A1A1A" stroke-width="3.51079" stroke-linecap="round" stroke-linejoin="round"/>
<path d="M533.097 292.407H301.708V388.576H533.097V292.407Z" stroke="#1A1A1A" stroke-width="3.51079" stroke-linecap="round" stroke-linejoin="round" stroke-dasharray="21.06 21.06"/>
<path d="M526.462 381.924V299.059H308.344V381.924H526.462Z" fill="white" stroke="#1A1A1A" stroke-width="3.51079" stroke-linecap="round" stroke-linejoin="round"/>
<path d="M402.582 409.273V651.654H497.691V409.273H402.582ZM450.134 506.626C445.523 506.626 441.015 505.256 437.182 502.687C433.348 500.119 430.359 496.469 428.595 492.199C426.83 487.928 426.368 483.229 427.268 478.695C428.168 474.162 430.388 469.997 433.649 466.729C436.909 463.46 441.063 461.234 445.586 460.332C450.108 459.431 454.796 459.893 459.056 461.662C463.316 463.431 466.957 466.427 469.519 470.27C472.081 474.114 473.448 478.632 473.448 483.255C473.448 489.453 470.991 495.398 466.619 499.781C462.247 504.164 456.317 506.626 450.134 506.626Z" fill="white" stroke="#1A1A1A" stroke-width="3.51079" stroke-linecap="round" stroke-linejoin="round"/>
<path d="M613.555 651.225C624.437 651.678 635.719 652.065 645.79 647.905C655.861 643.746 664.378 633.679 663.106 622.835C662.429 617.068 659.19 611.983 656.888 606.655C654.587 601.326 653.286 594.86 656.345 589.929C660.527 583.186 670.722 582.519 675.253 576.007C679.332 570.145 677.167 562.006 673.737 555.74C671.804 552.209 669.384 548.75 665.861 546.813C662.338 544.875 657.488 544.886 654.682 547.769C651.796 550.735 651.905 555.538 649.695 559.038C647.548 562.44 643.447 564.163 639.453 564.577C635.458 564.991 631.444 564.303 627.445 563.943C607.229 562.122 585.216 570.039 574.559 587.356C570.022 594.73 567.766 603.262 564.067 611.092C560.368 618.922 554.571 626.513 546.252 628.862C543.042 629.768 539.657 629.832 536.391 630.506C533.125 631.18 529.781 632.641 528.035 635.489C524.997 640.443 528.443 647.317 533.598 649.987C538.752 652.657 545.001 650.634 550.665 651.892C551.997 652.188 613.555 651.225 613.555 651.225Z" fill="#110F36" stroke="#1A1A1A" stroke-width="1.7554" stroke-linecap="round" stroke-linejoin="round"/>
<path d="M570.581 651.948C579.977 647.422 591.843 636.613 598.374 628.468C604.66 620.629 609.198 611.531 615.137 603.424C621.076 595.318 628.955 587.938 638.767 585.84" stroke="white" stroke-width="5.26619" stroke-linecap="round" stroke-linejoin="round"/>
<path d="M615.168 590.1C615.168 590.1 612.632 594.253 615.137 603.425M620.469 615.963C620.469 615.963 617.67 619.701 604.58 619.692M641.451 593.643C641.451 593.643 633.698 597.05 625.67 592.247" stroke="white" stroke-width="5.26619" stroke-linecap="round" stroke-linejoin="round"/>
<path d="M505.987 579.523C506.531 573.458 507.593 567.231 510.901 562.124C514.208 557.016 520.251 553.277 526.237 554.31C532.887 555.457 538.793 562.061 545.204 559.953C549.243 558.625 551.491 554.102 551.677 549.844C551.864 545.587 550.461 541.447 549.406 537.318C548.002 531.822 547.197 526.04 548.313 520.477C549.428 514.914 552.708 509.576 557.782 507.061C565.537 503.216 575.263 506.984 581.176 513.316C583.311 515.602 585.122 518.206 587.499 520.238C589.877 522.269 593.044 523.704 596.097 523.043C599.291 522.351 601.671 519.46 602.585 516.316C603.5 513.172 603.183 509.805 602.615 506.58C601.854 502.252 600.988 496.946 604.414 494.204C606.706 492.37 609.977 492.604 612.872 493.078C619.591 494.178 626.33 496.152 631.825 500.181C637.32 504.21 641.425 510.568 641.451 517.393C641.477 524.218 636.685 531.136 629.979 532.312C625.549 533.089 620.613 531.518 616.708 533.754C612.595 536.11 611.582 541.851 612.968 546.392C614.355 550.933 617.527 554.659 620.245 558.548C622.964 562.437 625.369 566.969 624.854 571.69C624.17 577.949 618.254 582.705 612.052 583.699C605.85 584.694 599.54 582.639 593.937 579.793C590.756 578.177 587.354 576.235 583.853 576.915C578.691 577.917 576.24 584.156 576.666 589.409C577.091 594.662 579.414 599.618 579.85 604.87C580.861 617.046 571.238 628.076 559.962 632.713C548.685 637.351 536.078 637.03 523.896 636.636C518.431 629.696 509.011 621.527 507.201 612.619C505.041 601.989 505.023 590.278 505.987 579.523Z" fill="white" stroke="#1A1A1A" stroke-width="3.51079" stroke-linecap="round" stroke-linejoin="round"/>
<path d="M514.75 611.43C529.898 603.904 542.744 592.428 551.941 578.207C557.7 569.27 561.911 559.401 567.703 550.485C573.495 541.569 581.321 533.367 591.454 530.202" fill="white"/>
<path d="M514.75 611.43C529.898 603.904 542.744 592.428 551.941 578.207C557.7 569.27 561.911 559.401 567.703 550.485C573.495 541.569 581.321 533.367 591.454 530.202" stroke="#1A1A1A" stroke-width="3.51079" stroke-linecap="round" stroke-linejoin="round"/>
<path d="M567.502 533.415C567.502 533.415 565.382 545.137 566.31 552.695ZM599.177 545.465C598.646 545.107 578.792 550.927 568.774 548.88ZM567.502 580.18C567.502 580.18 556.547 590.04 546.452 585.841ZM530.792 578.188C530.792 578.719 525.08 592.661 532.243 600.171Z" fill="white"/>
<path d="M567.502 533.415C567.502 533.415 565.382 545.137 566.31 552.695M599.177 545.465C598.646 545.107 578.792 550.927 568.774 548.88M567.502 580.18C567.502 580.18 556.547 590.04 546.452 585.841M530.792 578.188C530.792 578.719 525.08 592.661 532.243 600.171" stroke="#1A1A1A" stroke-width="3.51079" stroke-linecap="round" stroke-linejoin="round"/>
<path d="M76.7886 651.691H558.807C548.765 600.157 505.985 561.649 455.354 557.545C409.278 553.809 364.681 579.213 343.303 621.644C338.881 615.113 323.76 583.538 253.111 583.531C185.334 583.524 164.031 595.43 151.841 603.425C137.052 571.548 90.7502 561.091 72.9676 582.727C57.1523 601.968 58.1175 632.001 76.7886 651.691Z" fill="white" stroke="#1A1A1A" stroke-width="3.51079" stroke-linecap="round" stroke-linejoin="round"/>
<path d="M11.34 651.655H726.505" stroke="#1A1A1A" stroke-width="5.26619" stroke-linecap="round" stroke-linejoin="round"/>
<path d="M505.443 108.385L167.38 651.655" stroke="#1A1A1A" stroke-width="5.26619" stroke-linecap="round" stroke-linejoin="round"/>
<path d="M586.435 108.385L248.371 651.655" stroke="#1A1A1A" stroke-width="5.26619" stroke-linecap="round" stroke-linejoin="round"/>
<path d="M228.875 552.832L296.815 571.548" stroke="#1A1A1A" stroke-width="5.26619" stroke-linecap="round" stroke-linejoin="round"/>
<path d="M285.88 461.052L353.82 479.769" stroke="#1A1A1A" stroke-width="5.26619" stroke-linecap="round" stroke-linejoin="round"/>
<path d="M342.982 369.173L410.922 387.89" stroke="#1A1A1A" stroke-width="5.26619" stroke-linecap="round" stroke-linejoin="round"/>
<path d="M400.048 277.935L467.988 296.651" stroke="#1A1A1A" stroke-width="5.26619" stroke-linecap="round" stroke-linejoin="round"/>
<path d="M456.955 186.296L524.895 205.013" stroke="#1A1A1A" stroke-width="5.26619" stroke-linecap="round" stroke-linejoin="round"/>
<path d="M315.501 266.568C315.501 266.568 328.934 271.211 343.601 289.165C358.269 307.12 384.208 297.678 392.854 282.82C401.5 267.961 415.55 239.327 429.137 244.28C436.239 247.479 441.283 255.424 436.445 256.972C431.607 258.519 426.152 253.257 424.711 255.424C423.27 257.591 431.505 259.345 430.064 261.718C428.622 264.091 422.961 259.242 420.697 265.949C418.432 272.656 405.463 319.192 375.407 327.447C345.351 335.702 329.088 313.414 328.471 311.969C327.853 310.525 312.825 268.145 312.825 268.145L315.501 266.568Z" fill="white" stroke="#1A1A1A" stroke-width="3.51079" stroke-linecap="round" stroke-linejoin="round"/>
<path d="M97.0912 638.296C96.4137 637.204 96.2432 636.072 96.7212 634.939C98.4196 630.915 72.9442 623.64 72.9442 623.64C72.9442 623.64 71.0506 626.158 68.8353 629.831C75.062 638.236 86.1299 639.712 97.0912 638.296Z" fill="#110F36" stroke="#1A1A1A" stroke-width="1.7554" stroke-linecap="round" stroke-linejoin="round"/>
<path d="M109.845 645.154C103.854 643.597 98.8205 641.082 97.0912 638.296C86.1299 639.712 75.062 638.236 68.8353 629.831C65.1837 635.886 60.6572 645.084 62.2909 651.345C64.9157 661.406 117.565 662.489 122.814 659.549C128.064 656.608 118.182 647.321 109.845 645.154ZM200.167 415.155C200.167 415.155 170.368 493.163 153.488 519.784C136.607 546.406 69.7019 616.366 70.5253 622.35C71.3488 628.335 80.6126 632.256 90.0823 634.939C99.5519 637.622 103.257 639.892 126.52 616.572C149.782 593.252 239.126 523.293 264.242 457.254C260.948 420.52 200.167 415.155 200.167 415.155Z" fill="white" stroke="#1A1A1A" stroke-width="3.51079" stroke-linecap="round" stroke-linejoin="round"/>
<path d="M266.074 536.602C268.438 537.021 270.802 537.397 273.142 537.625C273.782 536.562 274.525 535.563 275.358 534.643L265.652 520.331C265.652 520.331 261.76 523.616 257.606 527.93C258.84 532.245 261.96 535.915 266.074 536.602Z" fill="#110F36" stroke="#1A1A1A" stroke-width="1.7554" stroke-linecap="round" stroke-linejoin="round"/>
<path d="M296.665 563.741C295.275 558.479 289.605 547.799 272.291 543.62C271.153 541.845 272.036 539.482 273.142 537.625C270.801 537.397 268.438 537.021 266.074 536.603C261.96 535.915 258.84 532.245 257.606 527.93C253.277 532.426 248.664 538.04 247.876 542.227C246.332 550.43 261.617 562.967 275.667 565.908C289.717 568.849 298.054 569.004 296.665 563.741Z" fill="white" stroke="#1A1A1A" stroke-width="3.51079" stroke-linecap="round" stroke-linejoin="round"/>
<path d="M292.969 461.696C274.759 482.647 261.771 521.435 261.977 522.054C261.977 522.054 269.285 539.39 276.49 536.604C283.696 533.818 308.605 514.212 308.605 514.212C308.605 514.212 368.82 466.128 376.231 434.141C383.642 402.153 369.643 377.595 311.384 386.882C293.474 386.056 250.861 373.055 250.861 373.055L214.423 349.735C214.423 349.735 197.803 378.286 196.719 389.404C196.719 389.404 184.573 462.413 235.421 466.747C286.269 471.081 310.561 453.952 310.561 453.952" fill="white"/>
<path d="M292.969 461.696C274.759 482.647 261.771 521.435 261.977 522.054C261.977 522.054 269.285 539.39 276.49 536.604C283.696 533.818 308.605 514.212 308.605 514.212C308.605 514.212 368.82 466.128 376.231 434.141C383.642 402.153 369.643 377.595 311.384 386.882C293.474 386.056 250.861 373.055 250.861 373.055L214.423 349.735C214.423 349.735 197.803 378.286 196.719 389.404C196.719 389.404 184.573 462.413 235.421 466.747C286.269 471.081 310.561 453.952 310.561 453.952" stroke="#1A1A1A" stroke-width="3.51079" stroke-linecap="round" stroke-linejoin="round"/>
<path d="M196.719 389.404C196.719 389.404 280.028 394.953 298.706 391.736C312.825 389.405 309.068 386.881 309.068 386.881L205.848 379.26L196.719 389.404Z" fill="#110F36" stroke="#1A1A1A" stroke-width="1.7554" stroke-linecap="round" stroke-linejoin="round"/>
<path d="M316.341 246.599C311.928 244.114 310.231 241.781 310.108 241.605L316.341 246.599Z" fill="white" stroke="#1A1A1A" stroke-width="3.51079" stroke-linecap="round" stroke-linejoin="round"/>
<path d="M349.778 219.36L345.385 232.668C345.385 232.668 331.559 254.495 319.824 248.304C318.634 247.798 317.471 247.229 316.341 246.599L316.734 246.912L310.871 257.28C312.753 260.62 319.383 267.884 320.203 268.782C320.223 268.807 320.245 268.829 320.27 268.849C320.275 268.857 320.282 268.865 320.289 268.873C320.289 268.873 303.767 274.769 294.041 271.519C284.315 268.269 279.064 258.52 279.064 258.52L303.302 231.124L312.26 210.693C312.26 210.693 336.654 211.311 340.204 212.86C343.754 214.409 349.778 219.36 349.778 219.36Z" fill="white" stroke="#1A1A1A" stroke-width="3.51079" stroke-linecap="round" stroke-linejoin="round"/>
<path d="M311.391 242.762C311.391 242.762 314.921 250.119 314.996 249.987C315.07 249.854 316.341 247.292 316.341 247.292L311.391 242.762Z" fill="#110F36" stroke="#1A1A1A" stroke-width="1.7554" stroke-linecap="round" stroke-linejoin="round"/>
<path d="M204.42 328.07C200.815 325.54 199.322 320.924 198.721 316.554C198.121 312.183 198.164 307.657 196.629 303.522C193.978 296.379 187.184 291.733 182.775 285.524C174.117 273.331 176.411 254.653 187.76 244.929C197.056 236.964 210.268 235.375 222.453 236.412C234.638 237.448 246.591 240.738 258.813 241.133C271.035 241.527 284.242 238.445 292.178 229.118C296.703 223.799 299.098 216.954 303.426 211.472C309.896 203.278 320.724 198.766 331.082 199.95C341.44 201.133 350.978 207.971 355.443 217.414C356.768 220.216 357.678 223.328 357.266 226.401C356.854 229.473 354.888 232.47 351.943 233.417C348.123 234.645 344.169 232.269 340.856 230.001L326.345 220.066C323.627 218.205 320.615 216.261 317.335 216.545C314.149 216.82 311.321 219.47 310.832 222.638C310.344 225.807 312.242 229.189 315.196 230.416C315.196 230.416 292.342 251.09 286.475 254.495C280.608 257.9 213.291 336.528 213.291 336.528L204.42 328.07Z" fill="#110F36" stroke="#1A1A1A" stroke-width="1.7554" stroke-linecap="round" stroke-linejoin="round"/>
<path d="M334.337 305.263C334.337 348.908 313.649 388.224 313.649 388.224C313.649 388.224 275.358 392.249 267.021 385.435C258.684 378.627 241.598 380.071 234.185 374.294C226.772 368.516 219.365 350.765 219.365 350.765C219.365 350.765 242.214 266.155 279.064 258.52C279.064 258.52 284.315 268.269 294.041 271.519C303.767 274.769 320.289 268.873 320.289 268.873C320.282 268.865 320.275 268.857 320.27 268.849C327.867 275.933 334.337 287.25 334.337 305.263Z" fill="#4F48ED" stroke="#1A1A1A" stroke-width="3.51079" stroke-linecap="round" stroke-linejoin="round"/>
<path d="M148.667 393.42L158.955 312.582L291.969 330.382L277.045 412.497L148.667 393.42Z" fill="white" stroke="#1A1A1A" stroke-width="3.51079" stroke-linecap="round" stroke-linejoin="round"/>
<path d="M161.414 315.787L151.841 391.009L274.741 409.273L288.636 332.813L161.414 315.787Z" fill="white" stroke="#1A1A1A" stroke-width="3.51079" stroke-linecap="round" stroke-linejoin="round"/>
<path d="M269.763 262.17C269.763 262.17 243.615 270.801 220.827 306.133C225.395 314.719 233.97 321.363 243.399 323.836C248.388 318.872 253.852 314.414 259.713 310.525" fill="#4F48ED"/>
<path d="M269.763 262.17C269.763 262.17 243.615 270.801 220.827 306.133C225.395 314.719 233.97 321.363 243.399 323.836C248.388 318.872 253.852 314.414 259.713 310.525" stroke="#1A1A1A" stroke-width="3.51079" stroke-linecap="round" stroke-linejoin="round"/>
<path d="M243.399 323.836C233.97 321.363 225.395 314.719 220.827 306.133C219.116 308.787 217.427 311.592 215.761 314.549C191.984 356.958 186.734 384.818 234.289 417.167C245.096 422.739 261 412.87 257.68 406.738C251.351 405.797 243.239 407.329 244.245 404.741C245.251 402.153 254.823 401.611 250.886 397.045C247.258 393.718 241.005 398.438 235.215 397.742C229.425 397.045 217.459 383.115 220.239 365.316C222.286 352.205 230.12 337.081 243.399 323.836Z" fill="white" stroke="#1A1A1A" stroke-width="3.51079" stroke-linecap="round" stroke-linejoin="round"/>
<path d="M311.9 242.454C311.9 242.454 315.209 245.993 316.341 246.599Z" fill="#4F48ED"/>
<path d="M311.9 242.454C311.9 242.454 315.209 245.993 316.341 246.599" stroke="#1A1A1A" stroke-width="3.51079" stroke-linecap="round" stroke-linejoin="round"/>
<path d="M708.599 411.047C717.556 411.047 724.817 403.768 724.817 394.789C724.817 385.81 717.556 378.531 708.599 378.531C699.642 378.531 692.381 385.81 692.381 394.789C692.381 403.768 699.642 411.047 708.599 411.047Z" fill="white" stroke="#1A1A1A" stroke-width="3.51079" stroke-linecap="round" stroke-linejoin="round"/>
<path d="M52.2207 558.879C58.5541 558.879 63.6884 553.732 63.6884 547.383C63.6884 541.034 58.5541 535.887 52.2207 535.887C45.8873 535.887 40.753 541.034 40.753 547.383C40.753 553.732 45.8873 558.879 52.2207 558.879Z" fill="white" stroke="#1A1A1A" stroke-width="3.51079" stroke-linecap="round" stroke-linejoin="round"/>
<path d="M140.116 225.591V214.781H128.991C128.556 213.202 127.928 211.682 127.122 210.257L134.988 202.372L127.361 194.727L119.496 202.612C118.074 201.804 116.558 201.174 114.983 200.738V189.591H104.205V200.738C102.629 201.174 101.113 201.804 99.6916 202.612L91.8263 194.727L84.2002 202.372L92.0654 210.257C91.2592 211.682 90.6316 213.202 90.1967 214.781H79.0722V225.591H90.1967C90.6316 227.17 91.2592 228.69 92.0654 230.115L84.2002 238L91.8263 245.645L99.6916 237.76C101.113 238.568 102.629 239.197 104.205 239.633V250.781H114.983V239.633C116.558 239.197 118.074 238.568 119.496 237.76L127.361 245.645L134.988 238L127.122 230.115C127.928 228.69 128.556 227.17 128.991 225.591L140.116 225.591ZM118.93 225.591C117.984 227.234 116.622 228.599 114.983 229.548C114.168 230.023 113.294 230.387 112.382 230.629C110.554 231.118 108.629 231.118 106.801 230.629C105.891 230.387 105.018 230.023 104.205 229.548C101.73 228.111 99.9217 225.751 99.1744 222.984C98.9344 222.071 98.813 221.13 98.8133 220.186C98.8122 219.241 98.9352 218.301 99.1793 217.388C99.4206 216.475 99.7833 215.598 100.258 214.781C101.205 213.139 102.567 211.774 104.205 210.824C105.018 210.349 105.891 209.985 106.801 209.743C108.629 209.254 110.554 209.254 112.382 209.743C113.294 209.985 114.168 210.349 114.983 210.824C116.621 211.774 117.982 213.139 118.93 214.781C119.404 215.598 119.767 216.475 120.008 217.388C120.252 218.301 120.375 219.241 120.374 220.186C120.375 221.13 120.253 222.071 120.013 222.984C119.768 223.897 119.404 224.773 118.93 225.591Z" fill="white" stroke="#1A1A1A" stroke-width="3.51079" stroke-linecap="round" stroke-linejoin="round"/>
<path d="M736.732 223.131H695.671V264.292H736.732V223.131Z" fill="white" stroke="#1A1A1A" stroke-width="3.51079" stroke-linecap="round" stroke-linejoin="round"/>
<path d="M716.201 230.163V257.26" stroke="#1A1A1A" stroke-width="3.51079" stroke-linecap="round" stroke-linejoin="round"/>
<path d="M702.735 243.711H729.33" stroke="#1A1A1A" stroke-width="3.51079" stroke-linecap="round" stroke-linejoin="round"/>
<path d="M242.169 157.051C246.275 157.051 249.603 153.714 249.603 149.599C249.603 145.484 246.275 142.148 242.169 142.148C238.064 142.148 234.736 145.484 234.736 149.599C234.736 153.714 238.064 157.051 242.169 157.051Z" fill="white" stroke="#1A1A1A" stroke-width="3.51079" stroke-linecap="round" stroke-linejoin="round"/>
<path d="M407.342 144.03H279.93C278.23 144.03 276.851 145.412 276.851 147.117V151.781C276.851 153.486 278.23 154.868 279.93 154.868H407.342C409.043 154.868 410.422 153.486 410.422 151.781V147.117C410.422 145.412 409.043 144.03 407.342 144.03Z" fill="white" stroke="#1A1A1A" stroke-width="3.51079" stroke-linecap="round" stroke-linejoin="round"/>
<path d="M798.66 309.146H736.732V349.405H798.66V309.146Z" fill="white" stroke="#1A1A1A" stroke-width="3.51079" stroke-linecap="round" stroke-linejoin="round"/>
<path d="M767.696 328.711L736.732 309.146H798.66L767.696 328.711Z" fill="white" stroke="#1A1A1A" stroke-width="3.51079" stroke-linecap="round" stroke-linejoin="round"/>
<path d="M736.732 349.405L759.799 323.722" stroke="#1A1A1A" stroke-width="3.51079" stroke-linecap="round" stroke-linejoin="round"/>
<path d="M776.46 323.722L798.66 349.405" stroke="#1A1A1A" stroke-width="3.51079" stroke-linecap="round" stroke-linejoin="round"/>
</g>
<defs>
<clipPath id="clip0_329_330">
<rect width="810" height="812" fill="white"/>
</clipPath>
</defs>
</svg>
