<svg width="357" height="155" viewBox="0 0 357 155" fill="none" xmlns="http://www.w3.org/2000/svg">
<g filter="url(#filter0_i_329_241)">
<path d="M258.262 56.6512C255.906 56.6512 253.922 55.8452 252.31 54.2332C250.698 52.6212 249.892 50.6682 249.892 48.3742C249.892 46.0802 250.698 44.0962 252.31 42.4222C253.922 40.7482 255.906 39.9112 258.262 39.9112C260.618 39.9112 262.602 40.7482 264.214 42.4222C265.826 44.0962 266.632 46.0802 266.632 48.3742C266.632 50.6682 265.826 52.6212 264.214 54.2332C262.602 55.8452 260.618 56.6512 258.262 56.6512ZM266.446 81.5752C266.446 85.7912 265.454 89.5422 263.47 92.8282C261.548 96.1142 259.099 98.8112 256.123 100.919C253.209 103.089 250.264 104.639 247.288 105.569L245.986 101.663C249.086 100.051 251.628 98.1602 253.612 95.9902C255.658 93.8202 257.239 91.4952 258.355 89.0152L255.1 87.3412C253.178 86.2872 251.814 85.0782 251.008 83.7142C250.264 82.2882 249.892 80.8932 249.892 79.5292C249.892 77.2352 250.667 75.3132 252.217 73.7632C253.767 72.2132 255.72 71.4382 258.076 71.4382C259.378 71.4382 260.587 71.6242 261.703 71.9962C262.819 72.3682 263.935 73.0502 265.051 74.0422C265.609 75.4682 265.981 76.7392 266.167 77.8552C266.353 78.9092 266.446 80.1492 266.446 81.5752Z" fill="#4F48ED"/>
</g>
<path d="M42.4198 48.9163V46.5383H55.5858V48.9163L50.7138 49.6123L40.9118 85.7463H38.4178L28.3838 55.7023L18.9298 85.7463H16.4358L5.99583 49.4963L1.18183 48.9163V46.5383H16.9578V48.9163L11.6218 49.5543L18.7558 76.1763L27.5718 49.6123L21.7718 48.9163V46.5383H37.5478V48.9163L31.6898 49.6123L40.3318 76.4663L47.6978 49.6703L42.4198 48.9163ZM67.5701 59.7043C66.4874 59.7043 65.3854 60.0137 64.2641 60.6323C63.1814 61.251 62.2341 62.237 61.4221 63.5903C60.6487 64.9437 60.1461 66.7417 59.9141 68.9843H70.4701C71.8621 68.9843 72.7707 68.6943 73.1961 68.1143C73.6601 67.5343 73.8921 66.819 73.8921 65.9683C73.8921 64.847 73.6021 63.8223 73.0221 62.8943C72.4807 61.9277 71.7267 61.1543 70.7601 60.5743C69.8321 59.9943 68.7687 59.7043 67.5701 59.7043ZM67.5121 86.0943C63.6067 86.0943 60.4747 84.8377 58.1161 82.3243C55.7574 79.7723 54.5781 76.273 54.5781 71.8263C54.5781 68.849 55.1774 66.2583 56.3761 64.0543C57.6134 61.8503 59.2374 60.1297 61.2481 58.8923C63.2974 57.655 65.5207 57.0363 67.9181 57.0363C69.9287 57.0363 71.7461 57.481 73.3701 58.3703C74.9941 59.2597 76.2894 60.5357 77.2561 62.1983C78.2227 63.8223 78.7061 65.8137 78.7061 68.1723C78.7061 68.8297 78.6674 69.4483 78.5901 70.0283C78.5127 70.5697 78.4161 71.0337 78.3001 71.4203H59.7981C59.8754 74.9777 60.7647 77.6843 62.4661 79.5403C64.1674 81.3963 66.4101 82.3243 69.1941 82.3243C71.0501 82.3243 72.5967 81.957 73.8341 81.2223C75.0714 80.449 76.2121 79.463 77.2561 78.2643L78.6481 79.3663C77.5654 81.4157 76.0961 83.059 74.2401 84.2963C72.3841 85.495 70.1414 86.0943 67.5121 86.0943ZM82.4181 85.3403V83.2523L87.0581 82.4403C87.0967 80.855 87.1161 79.3083 87.1161 77.8003C87.1547 76.2537 87.1741 74.707 87.1741 73.1603V47.6983L82.4181 47.1183V45.0883L91.4661 42.4783L92.2781 42.9423L92.0461 51.1783V73.1603C92.0461 74.707 92.0461 76.2537 92.0461 77.8003C92.0847 79.347 92.1234 80.8937 92.1621 82.4403L96.8021 83.2523V85.3403H82.4181ZM113.729 86.0943C109.747 86.0943 106.576 84.799 104.217 82.2083C101.859 79.6177 100.679 76.099 100.679 71.6523C100.679 68.5977 101.298 65.9877 102.535 63.8223C103.811 61.6183 105.474 59.9363 107.523 58.7763C109.573 57.6163 111.757 57.0363 114.077 57.0363C115.817 57.0363 117.422 57.365 118.891 58.0223C120.361 58.6797 121.579 59.5883 122.545 60.7483C123.512 61.8697 124.111 63.1457 124.343 64.5763C124.073 66.0457 123.183 66.7803 121.675 66.7803C120.709 66.7803 119.974 66.529 119.471 66.0263C119.007 65.485 118.679 64.8083 118.485 63.9963L117.441 60.1683C116.9 59.975 116.359 59.859 115.817 59.8203C115.315 59.743 114.812 59.7043 114.309 59.7043C111.835 59.7043 109.785 60.671 108.161 62.6043C106.576 64.5377 105.783 67.3603 105.783 71.0723C105.783 74.707 106.653 77.491 108.393 79.4243C110.133 81.3577 112.357 82.3243 115.063 82.3243C116.726 82.3243 118.253 81.957 119.645 81.2223C121.037 80.449 122.178 79.347 123.067 77.9163L124.517 78.6703C123.705 81.0677 122.391 82.9043 120.573 84.1803C118.756 85.4563 116.475 86.0943 113.729 86.0943ZM142.456 86.0943C140.213 86.0943 138.067 85.5723 136.018 84.5283C134.007 83.4457 132.364 81.841 131.088 79.7143C129.812 77.549 129.174 74.881 129.174 71.7103C129.174 68.501 129.812 65.8137 131.088 63.6483C132.364 61.4443 134.007 59.801 136.018 58.7183C138.067 57.597 140.213 57.0363 142.456 57.0363C144.698 57.0363 146.825 57.597 148.836 58.7183C150.885 59.801 152.548 61.4443 153.824 63.6483C155.138 65.8137 155.796 68.501 155.796 71.7103C155.796 74.881 155.138 77.549 153.824 79.7143C152.548 81.841 150.885 83.4457 148.836 84.5283C146.825 85.5723 144.698 86.0943 142.456 86.0943ZM142.456 83.4843C144.969 83.4843 146.902 82.4983 148.256 80.5263C149.609 78.5157 150.286 75.577 150.286 71.7103C150.286 67.805 149.609 64.8277 148.256 62.7783C146.902 60.729 144.969 59.7043 142.456 59.7043C139.942 59.7043 138.009 60.729 136.656 62.7783C135.341 64.8277 134.684 67.805 134.684 71.7103C134.684 75.577 135.341 78.5157 136.656 80.5263C138.009 82.4983 139.942 83.4843 142.456 83.4843ZM160.716 85.3403V83.2523L165.008 82.4403C165.046 80.971 165.066 79.3857 165.066 77.6843C165.104 75.983 165.124 74.475 165.124 73.1603V70.3763C165.124 68.791 165.104 67.4763 165.066 66.4323C165.066 65.3883 165.027 64.2863 164.95 63.1263L160.368 62.6043V60.5743L168.488 57.0363L169.358 57.6163L169.822 62.3143C171.175 60.7677 172.76 59.511 174.578 58.5443C176.395 57.539 178.193 57.0363 179.972 57.0363C181.789 57.0363 183.258 57.4617 184.38 58.3123C185.54 59.163 186.371 60.555 186.874 62.4883C188.343 60.671 189.986 59.3177 191.804 58.4283C193.621 57.5003 195.477 57.0363 197.372 57.0363C199.73 57.0363 201.548 57.829 202.824 59.4143C204.138 60.9997 204.796 63.5903 204.796 67.1863V73.1603C204.796 74.475 204.796 75.983 204.796 77.6843C204.834 79.3857 204.873 80.971 204.912 82.4403L208.972 83.2523V85.3403H195.516V83.2523L199.808 82.4403C199.846 81.0097 199.866 79.4437 199.866 77.7423C199.904 76.0023 199.924 74.475 199.924 73.1603V68.1143C199.924 65.4077 199.537 63.5903 198.764 62.6623C197.99 61.6957 196.753 61.2123 195.052 61.2123C193.853 61.2123 192.616 61.483 191.34 62.0243C190.102 62.5657 188.749 63.513 187.28 64.8663C187.318 65.2917 187.338 65.7557 187.338 66.2583C187.376 66.7223 187.396 67.225 187.396 67.7663V73.1603C187.396 74.475 187.396 75.983 187.396 77.6843C187.434 79.3857 187.473 80.971 187.512 82.4403L191.572 83.2523V85.3403H178.116V83.2523L182.408 82.4403C182.446 81.0097 182.466 79.4437 182.466 77.7423C182.504 76.0023 182.524 74.475 182.524 73.1603V68.2303C182.524 65.601 182.156 63.7837 181.422 62.7783C180.687 61.7343 179.469 61.2123 177.768 61.2123C176.453 61.2123 175.196 61.483 173.998 62.0243C172.799 62.5657 171.484 63.455 170.054 64.6923V73.1603C170.054 74.4363 170.054 75.9443 170.054 77.6843C170.092 79.3857 170.131 80.971 170.17 82.4403L174.172 83.2523V85.3403H160.716ZM226.277 59.7043C225.194 59.7043 224.092 60.0137 222.971 60.6323C221.888 61.251 220.941 62.237 220.129 63.5903C219.356 64.9437 218.853 66.7417 218.621 68.9843H229.177C230.569 68.9843 231.478 68.6943 231.903 68.1143C232.367 67.5343 232.599 66.819 232.599 65.9683C232.599 64.847 232.309 63.8223 231.729 62.8943C231.188 61.9277 230.434 61.1543 229.467 60.5743C228.539 59.9943 227.476 59.7043 226.277 59.7043ZM226.219 86.0943C222.314 86.0943 219.182 84.8377 216.823 82.3243C214.464 79.7723 213.285 76.273 213.285 71.8263C213.285 68.849 213.884 66.2583 215.083 64.0543C216.32 61.8503 217.944 60.1297 219.955 58.8923C222.004 57.655 224.228 57.0363 226.625 57.0363C228.636 57.0363 230.453 57.481 232.077 58.3703C233.701 59.2597 234.996 60.5357 235.963 62.1983C236.93 63.8223 237.413 65.8137 237.413 68.1723C237.413 68.8297 237.374 69.4483 237.297 70.0283C237.22 70.5697 237.123 71.0337 237.007 71.4203H218.505C218.582 74.9777 219.472 77.6843 221.173 79.5403C222.874 81.3963 225.117 82.3243 227.901 82.3243C229.757 82.3243 231.304 81.957 232.541 81.2223C233.778 80.449 234.919 79.463 235.963 78.2643L237.355 79.3663C236.272 81.4157 234.803 83.059 232.947 84.2963C231.091 85.495 228.848 86.0943 226.219 86.0943Z" fill="#110F36"/>
<path d="M1.61377 143.411V142.295L3.84577 141.892C3.86643 141.107 3.87677 140.259 3.87677 139.35C3.89743 138.42 3.90777 137.604 3.90777 136.901V135.413C3.90777 134.566 3.89743 133.863 3.87677 133.305C3.87677 132.747 3.8561 132.158 3.81477 131.538L1.36577 131.259V130.174L5.70577 128.283L6.17077 128.593L6.51177 132.251C7.02843 131.011 7.68977 130.04 8.49577 129.337C9.32243 128.634 10.1491 128.283 10.9758 128.283C11.4511 128.283 11.8954 128.386 12.3088 128.593C12.7221 128.8 13.0218 129.079 13.2078 129.43C13.2078 130.939 12.5981 131.693 11.3788 131.693C11.0274 131.693 10.6968 131.631 10.3868 131.507C10.0768 131.362 9.7771 131.166 9.48777 130.918L9.11577 130.577C8.49577 131.032 7.9791 131.59 7.56577 132.251C7.15243 132.912 6.81143 133.687 6.54277 134.576V136.901C6.54277 137.583 6.54277 138.379 6.54277 139.288C6.56343 140.197 6.5841 141.045 6.60477 141.83L9.14677 142.295V143.411H1.61377ZM21.4564 129.709C20.8778 129.709 20.2888 129.874 19.6894 130.205C19.1108 130.536 18.6044 131.063 18.1704 131.786C17.7571 132.509 17.4884 133.47 17.3644 134.669H23.0064C23.7504 134.669 24.2361 134.514 24.4634 134.204C24.7114 133.894 24.8354 133.512 24.8354 133.057C24.8354 132.458 24.6804 131.91 24.3704 131.414C24.0811 130.897 23.6781 130.484 23.1614 130.174C22.6654 129.864 22.0971 129.709 21.4564 129.709ZM21.4254 143.814C19.3381 143.814 17.6641 143.142 16.4034 141.799C15.1428 140.435 14.5124 138.565 14.5124 136.188C14.5124 134.597 14.8328 133.212 15.4734 132.034C16.1348 130.856 17.0028 129.936 18.0774 129.275C19.1728 128.614 20.3611 128.283 21.6424 128.283C22.7171 128.283 23.6884 128.521 24.5564 128.996C25.4244 129.471 26.1168 130.153 26.6334 131.042C27.1501 131.91 27.4084 132.974 27.4084 134.235C27.4084 134.586 27.3878 134.917 27.3464 135.227C27.3051 135.516 27.2534 135.764 27.1914 135.971H17.3024C17.3438 137.872 17.8191 139.319 18.7284 140.311C19.6378 141.303 20.8364 141.799 22.3244 141.799C23.3164 141.799 24.1431 141.603 24.8044 141.21C25.4658 140.797 26.0754 140.27 26.6334 139.629L27.3774 140.218C26.7988 141.313 26.0134 142.192 25.0214 142.853C24.0294 143.494 22.8308 143.814 21.4254 143.814ZM41.5134 143.721C40.7694 143.721 40.1494 143.504 39.6534 143.07C39.1574 142.636 38.8474 142.057 38.7234 141.334C37.8761 142.161 37.1321 142.781 36.4914 143.194C35.8508 143.607 35.0758 143.814 34.1664 143.814C33.0298 143.814 32.0481 143.494 31.2214 142.853C30.4154 142.192 30.0124 141.22 30.0124 139.939C30.0124 139.34 30.1468 138.782 30.4154 138.265C30.7048 137.748 31.2214 137.242 31.9654 136.746C32.7094 136.25 33.7738 135.754 35.1584 135.258C35.6338 135.093 36.1814 134.917 36.8014 134.731C37.4214 134.545 38.0414 134.38 38.6614 134.235V133.46C38.6614 131.951 38.4341 130.949 37.9794 130.453C37.5248 129.957 36.7808 129.709 35.7474 129.709C35.5201 129.709 35.2618 129.719 34.9724 129.74C34.7038 129.761 34.4041 129.812 34.0734 129.895L33.4844 131.91C33.1951 132.902 32.6578 133.398 31.8724 133.398C31.0044 133.398 30.5188 132.974 30.4154 132.127C30.7048 130.949 31.3868 130.019 32.4614 129.337C33.5568 128.634 34.8898 128.283 36.4604 128.283C38.0931 128.283 39.3021 128.696 40.0874 129.523C40.8728 130.329 41.2654 131.714 41.2654 133.677V140.28C41.2654 140.941 41.3688 141.417 41.5754 141.706C41.7821 141.975 42.0508 142.109 42.3814 142.109C42.6501 142.109 42.8774 142.047 43.0634 141.923C43.2494 141.799 43.4251 141.634 43.5904 141.427L44.2104 142.109C43.8384 142.708 43.4251 143.132 42.9704 143.38C42.5364 143.607 42.0508 143.721 41.5134 143.721ZM32.7714 139.474C32.7714 140.301 33.0091 140.89 33.4844 141.241C33.9598 141.592 34.5488 141.768 35.2514 141.768C35.5614 141.768 35.8508 141.727 36.1194 141.644C36.4088 141.561 36.7498 141.406 37.1424 141.179C37.5351 140.931 38.0414 140.58 38.6614 140.125V135.382C38.1241 135.527 37.5971 135.692 37.0804 135.878C36.5638 136.043 36.1401 136.188 35.8094 136.312C34.9208 136.663 34.2594 137.025 33.8254 137.397C33.3914 137.769 33.1021 138.131 32.9574 138.482C32.8334 138.833 32.7714 139.164 32.7714 139.474ZM48.5749 136.126C48.5749 138.151 48.9779 139.65 49.7839 140.621C50.6106 141.572 51.6439 142.047 52.8839 142.047C53.5659 142.047 54.1652 141.913 54.6819 141.644C55.2192 141.355 55.7772 140.89 56.3559 140.249V131.662C55.6532 131.042 55.0229 130.618 54.4649 130.391C53.9069 130.164 53.3696 130.05 52.8529 130.05C52.0882 130.05 51.3752 130.267 50.7139 130.701C50.0732 131.114 49.5566 131.776 49.1639 132.685C48.7712 133.574 48.5749 134.721 48.5749 136.126ZM56.6659 143.721L56.4489 141.582C55.9116 142.285 55.2916 142.832 54.5889 143.225C53.9069 143.618 53.0802 143.814 52.1089 143.814C50.8482 143.814 49.7426 143.494 48.7919 142.853C47.8412 142.212 47.0972 141.324 46.5599 140.187C46.0432 139.03 45.7849 137.697 45.7849 136.188C45.7849 134.597 46.0742 133.212 46.6529 132.034C47.2316 130.856 48.0169 129.936 49.0089 129.275C50.0009 128.614 51.1272 128.283 52.3879 128.283C53.1112 128.283 53.8036 128.428 54.4649 128.717C55.1469 129.006 55.8082 129.533 56.4489 130.298V123.292L53.8139 122.982V121.897L58.6499 120.502L59.0839 120.75L58.9599 125.152V141.923L61.4709 142.295V143.411L56.6659 143.721ZM71.503 129.802V128.686H77.548V129.802L75.874 130.143L70.883 143.318C69.8497 146.067 68.8474 148.051 67.876 149.27C66.9254 150.51 65.8094 151.13 64.528 151.13C63.7634 151.13 63.0917 150.934 62.513 150.541C61.955 150.169 61.676 149.683 61.676 149.084C61.7794 148.629 62.0274 148.288 62.42 148.061C62.8334 147.834 63.2777 147.72 63.753 147.72C64.1664 147.72 64.5487 147.803 64.9 147.968C65.2514 148.154 65.6337 148.464 66.047 148.898L66.202 149.053C66.8634 148.495 67.4214 147.813 67.876 147.007C68.3307 146.222 68.7027 145.416 68.992 144.589L69.116 144.217L63.505 130.05L61.8 129.802V128.686H69.24V129.833L66.512 130.143L70.387 140.714L74.2 130.174L71.503 129.802ZM91.1297 143.814C90.055 143.814 89.1973 143.525 88.5567 142.946C87.916 142.367 87.5957 141.479 87.5957 140.28C87.5957 139.887 87.5957 139.505 87.5957 139.133C87.6163 138.74 87.6267 138.244 87.6267 137.645V130.329H85.0537V128.965L87.8127 128.624L88.6187 124.47H90.4787L90.2927 128.686H94.4777V130.329H90.2617V139.939C90.2617 140.724 90.4167 141.303 90.7267 141.675C91.0367 142.026 91.45 142.202 91.9667 142.202C92.318 142.202 92.6487 142.13 92.9587 141.985C93.2893 141.84 93.651 141.634 94.0437 141.365L94.7877 142.171C93.9403 143.266 92.721 143.814 91.1297 143.814ZM103.35 143.814C102.151 143.814 101.004 143.535 99.9087 142.977C98.834 142.398 97.9557 141.541 97.2737 140.404C96.5917 139.247 96.2507 137.821 96.2507 136.126C96.2507 134.411 96.5917 132.974 97.2737 131.817C97.9557 130.639 98.834 129.761 99.9087 129.182C101.004 128.583 102.151 128.283 103.35 128.283C104.548 128.283 105.685 128.583 106.76 129.182C107.855 129.761 108.744 130.639 109.426 131.817C110.128 132.974 110.48 134.411 110.48 136.126C110.48 137.821 110.128 139.247 109.426 140.404C108.744 141.541 107.855 142.398 106.76 142.977C105.685 143.535 104.548 143.814 103.35 143.814ZM103.35 142.419C104.693 142.419 105.726 141.892 106.45 140.838C107.173 139.763 107.535 138.193 107.535 136.126C107.535 134.039 107.173 132.447 106.45 131.352C105.726 130.257 104.693 129.709 103.35 129.709C102.006 129.709 100.973 130.257 100.25 131.352C99.547 132.447 99.1957 134.039 99.1957 136.126C99.1957 138.193 99.547 139.763 100.25 140.838C100.973 141.892 102.006 142.419 103.35 142.419ZM119.291 151.13C118.361 151.13 117.679 150.934 117.245 150.541C116.79 150.148 116.552 149.756 116.532 149.363C116.8 148.516 117.41 148.092 118.361 148.092C118.774 148.092 119.167 148.164 119.539 148.309C119.911 148.474 120.293 148.712 120.686 149.022L121.399 149.549C121.626 149.322 121.791 149.043 121.895 148.712C122.143 148.051 122.308 147.048 122.391 145.705C122.494 144.382 122.546 142.564 122.546 140.249V135.444C122.546 134.597 122.535 133.894 122.515 133.336C122.515 132.757 122.494 132.158 122.453 131.538L120.004 131.259V130.174L124.685 128.283L125.15 128.593L125.057 132.809V140.311C125.057 141.985 125.015 143.401 124.933 144.558C124.85 145.715 124.664 146.676 124.375 147.441C124.106 148.226 123.693 148.898 123.135 149.456C122.597 149.993 122.05 150.407 121.492 150.696C120.934 150.985 120.2 151.13 119.291 151.13ZM123.817 124.873C123.238 124.873 122.742 124.687 122.329 124.315C121.936 123.943 121.74 123.468 121.74 122.889C121.74 122.29 121.936 121.814 122.329 121.463C122.742 121.091 123.238 120.905 123.817 120.905C124.416 120.905 124.912 121.091 125.305 121.463C125.718 121.814 125.925 122.29 125.925 122.889C125.925 123.468 125.718 123.943 125.305 124.315C124.912 124.687 124.416 124.873 123.817 124.873ZM136.196 143.814C134.998 143.814 133.851 143.535 132.755 142.977C131.681 142.398 130.802 141.541 130.12 140.404C129.438 139.247 129.097 137.821 129.097 136.126C129.097 134.411 129.438 132.974 130.12 131.817C130.802 130.639 131.681 129.761 132.755 129.182C133.851 128.583 134.998 128.283 136.196 128.283C137.395 128.283 138.532 128.583 139.606 129.182C140.702 129.761 141.59 130.639 142.272 131.817C142.975 132.974 143.326 134.411 143.326 136.126C143.326 137.821 142.975 139.247 142.272 140.404C141.59 141.541 140.702 142.398 139.606 142.977C138.532 143.535 137.395 143.814 136.196 143.814ZM136.196 142.419C137.54 142.419 138.573 141.892 139.296 140.838C140.02 139.763 140.381 138.193 140.381 136.126C140.381 134.039 140.02 132.447 139.296 131.352C138.573 130.257 137.54 129.709 136.196 129.709C134.853 129.709 133.82 130.257 133.096 131.352C132.394 132.447 132.042 134.039 132.042 136.126C132.042 138.193 132.394 139.763 133.096 140.838C133.82 141.892 134.853 142.419 136.196 142.419ZM145.801 143.411V142.295L148.126 141.861C148.147 141.076 148.157 140.228 148.157 139.319C148.178 138.389 148.188 137.583 148.188 136.901V135.444C148.188 134.597 148.178 133.894 148.157 133.336C148.157 132.757 148.136 132.158 148.095 131.538L145.615 131.259V130.174L150.389 128.283L150.854 128.593L150.761 132.809V136.901C150.761 137.583 150.761 138.389 150.761 139.319C150.782 140.228 150.802 141.076 150.823 141.861L152.993 142.295V143.411H145.801ZM149.459 124.873C148.88 124.873 148.384 124.687 147.971 124.315C147.578 123.943 147.382 123.468 147.382 122.889C147.382 122.29 147.578 121.814 147.971 121.463C148.384 121.091 148.88 120.905 149.459 120.905C150.038 120.905 150.523 121.091 150.916 121.463C151.329 121.814 151.536 122.29 151.536 122.889C151.536 123.468 151.329 123.943 150.916 124.315C150.523 124.687 150.038 124.873 149.459 124.873ZM155.189 143.411V142.295L157.483 141.861C157.504 141.076 157.514 140.228 157.514 139.319C157.535 138.41 157.545 137.604 157.545 136.901V135.413C157.545 134.566 157.535 133.863 157.514 133.305C157.514 132.747 157.494 132.158 157.452 131.538L155.003 131.259V130.174L159.343 128.283L159.808 128.593L160.056 131.073C160.821 130.246 161.699 129.575 162.691 129.058C163.683 128.541 164.655 128.283 165.605 128.283C166.949 128.283 167.941 128.738 168.581 129.647C169.243 130.536 169.573 131.993 169.573 134.018V136.901C169.573 137.604 169.573 138.41 169.573 139.319C169.594 140.228 169.615 141.076 169.635 141.861L171.805 142.295V143.411H164.613V142.295L166.907 141.861C166.928 141.096 166.938 140.259 166.938 139.35C166.959 138.42 166.969 137.604 166.969 136.901V134.266C166.969 132.84 166.763 131.858 166.349 131.321C165.957 130.784 165.306 130.515 164.396 130.515C163.694 130.515 163.012 130.66 162.35 130.949C161.689 131.238 160.966 131.714 160.18 132.375V136.901C160.18 137.583 160.18 138.389 160.18 139.319C160.201 140.228 160.222 141.076 160.242 141.861L162.381 142.295V143.411H155.189ZM347.233 143.814C346.675 143.814 346.199 143.618 345.807 143.225C345.435 142.812 345.249 142.336 345.249 141.799C345.249 141.262 345.435 140.797 345.807 140.404C346.199 139.991 346.675 139.784 347.233 139.784C347.791 139.784 348.266 139.991 348.659 140.404C349.051 140.797 349.248 141.262 349.248 141.799C349.248 142.336 349.051 142.812 348.659 143.225C348.266 143.618 347.791 143.814 347.233 143.814ZM353.464 129.12C353.464 131.063 352.43 132.365 350.364 133.026L349.31 133.398C348.669 133.605 348.266 133.811 348.101 134.018C347.935 134.225 347.853 134.586 347.853 135.103V136.808H346.644L346.272 135.506C346.086 134.907 345.951 134.442 345.869 134.111C345.807 133.78 345.776 133.522 345.776 133.336C345.776 132.861 345.962 132.468 346.334 132.158C346.706 131.848 347.346 131.559 348.256 131.29L350.023 130.732C351.18 130.339 351.759 129.626 351.759 128.593C351.759 128.2 351.686 127.818 351.542 127.446C351.397 127.053 351.201 126.671 350.953 126.299L346.892 125.586C345.982 125.421 345.383 125.204 345.094 124.935C344.804 124.646 344.66 124.305 344.66 123.912C344.66 123.437 344.804 123.075 345.094 122.827C345.383 122.558 345.807 122.352 346.365 122.207C347.026 122.269 347.76 122.476 348.566 122.827C349.372 123.178 350.147 123.654 350.891 124.253C351.635 124.852 352.244 125.565 352.72 126.392C353.216 127.219 353.464 128.128 353.464 129.12Z" fill="#110F36"/>
<path d="M206.266 144C204.282 144 202.474 143.607 200.841 142.822C199.209 142.016 197.907 140.817 196.935 139.226C195.985 137.635 195.509 135.63 195.509 133.212C195.509 131.373 195.799 129.781 196.377 128.438C196.977 127.095 197.783 125.979 198.795 125.09C199.829 124.201 201.007 123.54 202.329 123.106C203.652 122.672 205.037 122.455 206.483 122.455C207.661 122.455 208.736 122.589 209.707 122.858C210.679 123.106 211.629 123.488 212.559 124.005L212.683 128.81H210.327L209.428 124.749C208.726 124.398 207.982 124.222 207.196 124.222C206.101 124.222 205.078 124.532 204.127 125.152C203.197 125.772 202.443 126.754 201.864 128.097C201.286 129.42 200.996 131.135 200.996 133.243C200.996 135.351 201.275 137.066 201.833 138.389C202.391 139.691 203.125 140.652 204.034 141.272C204.964 141.892 205.977 142.202 207.072 142.202C207.506 142.202 207.94 142.15 208.374 142.047C208.808 141.944 209.242 141.799 209.676 141.613L210.544 137.645H212.9L212.776 142.419C211.95 142.874 210.989 143.246 209.893 143.535C208.819 143.845 207.61 144 206.266 144ZM222.513 143.876C220.901 143.876 219.506 143.545 218.328 142.884C217.15 142.202 216.24 141.262 215.6 140.063C214.959 138.844 214.639 137.438 214.639 135.847C214.639 134.256 214.98 132.871 215.662 131.693C216.364 130.515 217.315 129.595 218.514 128.934C219.712 128.273 221.045 127.942 222.513 127.942C223.98 127.942 225.303 128.262 226.481 128.903C227.679 129.544 228.63 130.463 229.333 131.662C230.035 132.84 230.387 134.235 230.387 135.847C230.387 137.459 230.066 138.864 229.426 140.063C228.785 141.262 227.876 142.202 226.698 142.884C225.52 143.545 224.125 143.876 222.513 143.876ZM222.513 142.264C223.381 142.264 224.032 141.758 224.466 140.745C224.9 139.732 225.117 138.131 225.117 135.94C225.117 133.729 224.9 132.117 224.466 131.104C224.032 130.091 223.381 129.585 222.513 129.585C221.624 129.585 220.963 130.091 220.529 131.104C220.095 132.117 219.878 133.729 219.878 135.94C219.878 138.131 220.095 139.732 220.529 140.745C220.963 141.758 221.624 142.264 222.513 142.264ZM237.618 136.002C237.618 137.697 237.917 138.988 238.517 139.877C239.116 140.745 239.891 141.179 240.842 141.179C241.544 141.179 242.185 140.941 242.764 140.466V131.228C242.206 130.794 241.596 130.577 240.935 130.577C239.984 130.577 239.188 131.021 238.548 131.91C237.928 132.799 237.618 134.163 237.618 136.002ZM243.167 143.752L242.919 141.985C241.72 143.246 240.263 143.876 238.548 143.876C237.39 143.876 236.336 143.576 235.386 142.977C234.456 142.378 233.722 141.499 233.185 140.342C232.647 139.164 232.379 137.738 232.379 136.064C232.379 134.369 232.699 132.923 233.34 131.724C234.001 130.505 234.848 129.575 235.882 128.934C236.936 128.273 238.041 127.942 239.199 127.942C240.005 127.942 240.707 128.087 241.307 128.376C241.906 128.645 242.454 129.048 242.95 129.585V123.912L240.78 123.602V122.3L247.321 120.905L247.817 121.215L247.693 125.555V141.644L249.212 141.954V143.411L243.167 143.752ZM258.442 129.554C257.863 129.554 257.326 129.916 256.83 130.639C256.355 131.342 256.086 132.644 256.024 134.545H258.659C259.403 134.545 259.899 134.4 260.147 134.111C260.416 133.801 260.55 133.295 260.55 132.592C260.55 131.559 260.343 130.794 259.93 130.298C259.517 129.802 259.021 129.554 258.442 129.554ZM258.504 143.876C256.995 143.876 255.662 143.566 254.505 142.946C253.348 142.305 252.438 141.396 251.777 140.218C251.116 139.019 250.785 137.593 250.785 135.94C250.785 134.204 251.167 132.747 251.932 131.569C252.717 130.37 253.72 129.471 254.939 128.872C256.158 128.252 257.429 127.942 258.752 127.942C260.116 127.942 261.273 128.231 262.224 128.81C263.195 129.389 263.929 130.174 264.425 131.166C264.921 132.137 265.169 133.253 265.169 134.514C265.169 135.113 265.107 135.661 264.983 136.157H256.024C256.127 137.79 256.572 138.999 257.357 139.784C258.163 140.549 259.103 140.931 260.178 140.931C261.025 140.931 261.749 140.776 262.348 140.466C262.947 140.135 263.474 139.732 263.929 139.257L265.014 140.249C264.373 141.468 263.505 142.378 262.41 142.977C261.315 143.576 260.013 143.876 258.504 143.876ZM276.933 142.202C277.987 142.202 278.824 141.809 279.444 141.024C280.085 140.239 280.55 139.174 280.839 137.831C281.128 136.467 281.273 134.927 281.273 133.212C281.273 131.497 281.128 129.967 280.839 128.624C280.55 127.281 280.085 126.216 279.444 125.431C278.824 124.646 277.987 124.253 276.933 124.253C275.9 124.253 275.063 124.646 274.422 125.431C273.781 126.216 273.316 127.281 273.027 128.624C272.738 129.967 272.593 131.497 272.593 133.212C272.593 134.927 272.738 136.467 273.027 137.831C273.316 139.174 273.781 140.239 274.422 141.024C275.063 141.809 275.9 142.202 276.933 142.202ZM281.335 149.797C279.206 149.797 277.532 149.229 276.313 148.092C275.094 146.955 274.432 145.488 274.329 143.69C273.006 143.339 271.797 142.729 270.702 141.861C269.607 140.972 268.728 139.815 268.067 138.389C267.426 136.942 267.106 135.217 267.106 133.212C267.106 131.435 267.375 129.874 267.912 128.531C268.449 127.188 269.183 126.072 270.113 125.183C271.043 124.274 272.097 123.592 273.275 123.137C274.453 122.682 275.672 122.455 276.933 122.455C278.214 122.455 279.434 122.682 280.591 123.137C281.769 123.571 282.823 124.232 283.753 125.121C284.683 126.01 285.417 127.136 285.954 128.5C286.491 129.843 286.76 131.414 286.76 133.212C286.76 135.237 286.419 136.984 285.737 138.451C285.055 139.898 284.146 141.065 283.009 141.954C281.893 142.822 280.643 143.421 279.258 143.752C279.299 144.909 279.63 145.808 280.25 146.449C280.87 147.11 281.686 147.441 282.699 147.441C283.009 147.441 283.36 147.41 283.753 147.348C284.146 147.307 284.538 147.214 284.931 147.069L285.613 148.805C285.096 149.136 284.466 149.384 283.722 149.549C282.978 149.714 282.182 149.797 281.335 149.797ZM299.661 143.752L299.475 141.148C298.813 142.016 298.059 142.688 297.212 143.163C296.364 143.638 295.445 143.876 294.453 143.876C293.13 143.876 292.066 143.463 291.26 142.636C290.454 141.789 290.061 140.342 290.082 138.296L290.206 130.732L288.408 130.329V129.027L294.732 128.128L295.228 128.469L295.073 132.84V138.327C295.073 139.278 295.217 139.939 295.507 140.311C295.817 140.683 296.23 140.869 296.747 140.869C297.181 140.869 297.625 140.735 298.08 140.466C298.555 140.197 298.999 139.867 299.413 139.474L299.537 130.701L297.832 130.329V129.12L304.001 128.128L304.497 128.469L304.404 132.84V141.644L306.016 141.985V143.442L299.661 143.752ZM315.114 129.554C314.535 129.554 313.998 129.916 313.502 130.639C313.027 131.342 312.758 132.644 312.696 134.545H315.331C316.075 134.545 316.571 134.4 316.819 134.111C317.088 133.801 317.222 133.295 317.222 132.592C317.222 131.559 317.015 130.794 316.602 130.298C316.189 129.802 315.693 129.554 315.114 129.554ZM315.176 143.876C313.667 143.876 312.334 143.566 311.177 142.946C310.02 142.305 309.11 141.396 308.449 140.218C307.788 139.019 307.457 137.593 307.457 135.94C307.457 134.204 307.839 132.747 308.604 131.569C309.389 130.37 310.392 129.471 311.611 128.872C312.83 128.252 314.101 127.942 315.424 127.942C316.788 127.942 317.945 128.231 318.896 128.81C319.867 129.389 320.601 130.174 321.097 131.166C321.593 132.137 321.841 133.253 321.841 134.514C321.841 135.113 321.779 135.661 321.655 136.157H312.696C312.799 137.79 313.244 138.999 314.029 139.784C314.835 140.549 315.775 140.931 316.85 140.931C317.697 140.931 318.421 140.776 319.02 140.466C319.619 140.135 320.146 139.732 320.601 139.257L321.686 140.249C321.045 141.468 320.177 142.378 319.082 142.977C317.987 143.576 316.685 143.876 315.176 143.876Z" fill="#F2F2F2"/>
<g filter="url(#filter1_i_329_241)">
<path d="M191.004 144.019C188.956 144.019 187.089 143.614 185.404 142.803C183.718 141.971 182.374 140.734 181.372 139.091C180.39 137.448 179.9 135.379 179.9 132.883C179.9 130.984 180.198 129.342 180.796 127.955C181.414 126.568 182.246 125.416 183.292 124.499C184.358 123.582 185.574 122.899 186.94 122.451C188.305 122.003 189.734 121.779 191.228 121.779C192.444 121.779 193.553 121.918 194.556 122.195C195.558 122.451 196.54 122.846 197.5 123.379L197.628 128.339H195.196L194.268 124.147C193.542 123.784 192.774 123.603 191.964 123.603C190.833 123.603 189.777 123.923 188.796 124.563C187.836 125.203 187.057 126.216 186.46 127.603C185.862 128.968 185.564 130.739 185.564 132.915C185.564 135.091 185.852 136.862 186.428 138.227C187.004 139.571 187.761 140.563 188.7 141.203C189.66 141.843 190.705 142.163 191.836 142.163C192.284 142.163 192.732 142.11 193.18 142.003C193.628 141.896 194.076 141.747 194.524 141.555L195.42 137.459H197.852L197.724 142.387C196.87 142.856 195.878 143.24 194.748 143.539C193.638 143.859 192.39 144.019 191.004 144.019ZM207.774 143.891C206.11 143.891 204.67 143.55 203.454 142.867C202.238 142.163 201.299 141.192 200.638 139.955C199.977 138.696 199.646 137.246 199.646 135.603C199.646 133.96 199.998 132.531 200.702 131.315C201.427 130.099 202.409 129.15 203.646 128.467C204.883 127.784 206.259 127.443 207.774 127.443C209.289 127.443 210.654 127.774 211.87 128.435C213.107 129.096 214.089 130.046 214.814 131.283C215.539 132.499 215.902 133.939 215.902 135.603C215.902 137.267 215.571 138.718 214.91 139.955C214.249 141.192 213.31 142.163 212.094 142.867C210.878 143.55 209.438 143.891 207.774 143.891ZM207.774 142.227C208.67 142.227 209.342 141.704 209.79 140.659C210.238 139.614 210.462 137.96 210.462 135.699C210.462 133.416 210.238 131.752 209.79 130.707C209.342 129.662 208.67 129.139 207.774 129.139C206.857 129.139 206.174 129.662 205.726 130.707C205.278 131.752 205.054 133.416 205.054 135.699C205.054 137.96 205.278 139.614 205.726 140.659C206.174 141.704 206.857 142.227 207.774 142.227ZM223.367 135.763C223.367 137.512 223.676 138.846 224.295 139.763C224.913 140.659 225.713 141.107 226.695 141.107C227.42 141.107 228.081 140.862 228.679 140.371V130.835C228.103 130.387 227.473 130.163 226.791 130.163C225.809 130.163 224.988 130.622 224.327 131.539C223.687 132.456 223.367 133.864 223.367 135.763ZM229.095 143.763L228.839 141.939C227.601 143.24 226.097 143.891 224.327 143.891C223.132 143.891 222.044 143.582 221.063 142.963C220.103 142.344 219.345 141.438 218.791 140.243C218.236 139.027 217.959 137.555 217.959 135.827C217.959 134.078 218.289 132.584 218.951 131.347C219.633 130.088 220.508 129.128 221.575 128.467C222.663 127.784 223.804 127.443 224.999 127.443C225.831 127.443 226.556 127.592 227.175 127.891C227.793 128.168 228.359 128.584 228.871 129.139V123.283L226.631 122.963V121.619L233.383 120.179L233.895 120.499L233.767 124.979V141.587L235.335 141.907V143.411L229.095 143.763ZM244.863 129.107C244.265 129.107 243.711 129.48 243.199 130.227C242.708 130.952 242.431 132.296 242.367 134.259H245.087C245.855 134.259 246.367 134.11 246.623 133.811C246.9 133.491 247.039 132.968 247.039 132.243C247.039 131.176 246.825 130.387 246.399 129.875C245.972 129.363 245.46 129.107 244.863 129.107ZM244.927 143.891C243.369 143.891 241.993 143.571 240.799 142.931C239.604 142.27 238.665 141.331 237.983 140.115C237.3 138.878 236.959 137.406 236.959 135.699C236.959 133.907 237.353 132.403 238.143 131.187C238.953 129.95 239.988 129.022 241.247 128.403C242.505 127.763 243.817 127.443 245.183 127.443C246.591 127.443 247.785 127.742 248.767 128.339C249.769 128.936 250.527 129.747 251.039 130.771C251.551 131.774 251.807 132.926 251.807 134.227C251.807 134.846 251.743 135.411 251.615 135.923H242.367C242.473 137.608 242.932 138.856 243.743 139.667C244.575 140.456 245.545 140.851 246.655 140.851C247.529 140.851 248.276 140.691 248.895 140.371C249.513 140.03 250.057 139.614 250.527 139.123L251.647 140.147C250.985 141.406 250.089 142.344 248.959 142.963C247.828 143.582 246.484 143.891 244.927 143.891ZM263.95 142.163C265.038 142.163 265.902 141.758 266.542 140.947C267.203 140.136 267.683 139.038 267.982 137.651C268.281 136.243 268.43 134.654 268.43 132.883C268.43 131.112 268.281 129.534 267.982 128.147C267.683 126.76 267.203 125.662 266.542 124.851C265.902 124.04 265.038 123.635 263.95 123.635C262.883 123.635 262.019 124.04 261.358 124.851C260.697 125.662 260.217 126.76 259.918 128.147C259.619 129.534 259.47 131.112 259.47 132.883C259.47 134.654 259.619 136.243 259.918 137.651C260.217 139.038 260.697 140.136 261.358 140.947C262.019 141.758 262.883 142.163 263.95 142.163ZM268.494 150.003C266.297 150.003 264.569 149.416 263.31 148.243C262.051 147.07 261.369 145.555 261.262 143.699C259.897 143.336 258.649 142.707 257.518 141.811C256.387 140.894 255.481 139.699 254.798 138.227C254.137 136.734 253.806 134.952 253.806 132.883C253.806 131.048 254.083 129.438 254.638 128.051C255.193 126.664 255.95 125.512 256.91 124.595C257.87 123.656 258.958 122.952 260.174 122.483C261.39 122.014 262.649 121.779 263.95 121.779C265.273 121.779 266.531 122.014 267.726 122.483C268.942 122.931 270.03 123.614 270.99 124.531C271.95 125.448 272.707 126.611 273.262 128.019C273.817 129.406 274.094 131.027 274.094 132.883C274.094 134.974 273.742 136.776 273.038 138.291C272.334 139.784 271.395 140.99 270.222 141.907C269.07 142.803 267.779 143.422 266.35 143.763C266.393 144.958 266.734 145.886 267.374 146.547C268.014 147.23 268.857 147.571 269.902 147.571C270.222 147.571 270.585 147.539 270.99 147.475C271.395 147.432 271.801 147.336 272.206 147.187L272.91 148.979C272.377 149.32 271.726 149.576 270.958 149.747C270.19 149.918 269.369 150.003 268.494 150.003ZM287.411 143.763L287.219 141.075C286.536 141.971 285.757 142.664 284.883 143.155C284.008 143.646 283.059 143.891 282.035 143.891C280.669 143.891 279.571 143.464 278.739 142.611C277.907 141.736 277.501 140.243 277.523 138.131L277.651 130.323L275.795 129.907V128.563L282.323 127.635L282.835 127.987L282.675 132.499V138.163C282.675 139.144 282.824 139.827 283.123 140.211C283.443 140.595 283.869 140.787 284.403 140.787C284.851 140.787 285.309 140.648 285.779 140.371C286.269 140.094 286.728 139.752 287.155 139.347L287.283 130.291L285.523 129.907V128.659L291.891 127.635L292.403 127.987L292.307 132.499V141.587L293.971 141.939V143.443L287.411 143.763ZM303.363 129.107C302.765 129.107 302.211 129.48 301.699 130.227C301.208 130.952 300.931 132.296 300.867 134.259H303.587C304.355 134.259 304.867 134.11 305.123 133.811C305.4 133.491 305.539 132.968 305.539 132.243C305.539 131.176 305.325 130.387 304.899 129.875C304.472 129.363 303.96 129.107 303.363 129.107ZM303.427 143.891C301.869 143.891 300.493 143.571 299.299 142.931C298.104 142.27 297.165 141.331 296.483 140.115C295.8 138.878 295.459 137.406 295.459 135.699C295.459 133.907 295.853 132.403 296.643 131.187C297.453 129.95 298.488 129.022 299.747 128.403C301.005 127.763 302.317 127.443 303.683 127.443C305.091 127.443 306.285 127.742 307.267 128.339C308.269 128.936 309.027 129.747 309.539 130.771C310.051 131.774 310.307 132.926 310.307 134.227C310.307 134.846 310.243 135.411 310.115 135.923H300.867C300.973 137.608 301.432 138.856 302.243 139.667C303.075 140.456 304.045 140.851 305.155 140.851C306.029 140.851 306.776 140.691 307.395 140.371C308.013 140.03 308.557 139.614 309.027 139.123L310.147 140.147C309.485 141.406 308.589 142.344 307.459 142.963C306.328 143.582 304.984 143.891 303.427 143.891ZM317.746 143.891C315.719 143.891 313.863 143.4 312.178 142.419L312.274 138.515H314.834L315.378 141.683C315.762 141.832 316.146 141.95 316.53 142.035C316.914 142.099 317.33 142.131 317.778 142.131C318.695 142.131 319.399 141.982 319.89 141.683C320.381 141.363 320.626 140.883 320.626 140.243C320.626 139.752 320.445 139.326 320.082 138.963C319.719 138.6 319.005 138.27 317.938 137.971L316.21 137.459C314.973 137.096 314.013 136.51 313.33 135.699C312.669 134.888 312.338 133.886 312.338 132.691C312.338 131.219 312.914 129.982 314.066 128.979C315.218 127.955 316.871 127.443 319.026 127.443C319.965 127.443 320.829 127.56 321.618 127.795C322.429 128.008 323.25 128.328 324.082 128.755L323.858 132.243H321.298L320.658 129.491C320.21 129.32 319.623 129.235 318.898 129.235C318.173 129.235 317.586 129.384 317.138 129.683C316.711 129.982 316.498 130.43 316.498 131.027C316.498 131.454 316.669 131.838 317.01 132.179C317.351 132.499 318.077 132.83 319.186 133.171L320.754 133.619C322.269 134.067 323.357 134.707 324.018 135.539C324.679 136.371 325.01 137.384 325.01 138.579C325.01 140.264 324.359 141.576 323.058 142.515C321.778 143.432 320.007 143.891 317.746 143.891ZM332.757 143.891C331.327 143.891 330.207 143.55 329.397 142.867C328.586 142.163 328.181 141.022 328.181 139.443C328.181 138.888 328.181 138.376 328.181 137.907C328.202 137.416 328.213 136.862 328.213 136.243V130.131H326.133V128.243L328.501 127.923L330.101 123.443H333.365L333.301 127.955H336.661V130.131H333.301V139.091C333.301 139.838 333.45 140.392 333.749 140.755C334.069 141.096 334.463 141.267 334.933 141.267C335.487 141.267 336.063 141.032 336.661 140.563L337.461 141.331C337.034 142.142 336.437 142.771 335.669 143.219C334.922 143.667 333.951 143.891 332.757 143.891Z" fill="#4F48ED"/>
</g>
<defs>
<filter id="filter0_i_329_241" x="245.986" y="39.9111" width="20.646" height="69.658" filterUnits="userSpaceOnUse" color-interpolation-filters="sRGB">
<feFlood flood-opacity="0" result="BackgroundImageFix"/>
<feBlend mode="normal" in="SourceGraphic" in2="BackgroundImageFix" result="shape"/>
<feColorMatrix in="SourceAlpha" type="matrix" values="0 0 0 0 0 0 0 0 0 0 0 0 0 0 0 0 0 0 127 0" result="hardAlpha"/>
<feOffset dy="4"/>
<feGaussianBlur stdDeviation="2"/>
<feComposite in2="hardAlpha" operator="arithmetic" k2="-1" k3="1"/>
<feColorMatrix type="matrix" values="0 0 0 0 0 0 0 0 0 0 0 0 0 0 0 0 0 0 0.25 0"/>
<feBlend mode="normal" in2="shape" result="effect1_innerShadow_329_241"/>
</filter>
<filter id="filter1_i_329_241" x="179.9" y="120.179" width="157.561" height="33.824" filterUnits="userSpaceOnUse" color-interpolation-filters="sRGB">
<feFlood flood-opacity="0" result="BackgroundImageFix"/>
<feBlend mode="normal" in="SourceGraphic" in2="BackgroundImageFix" result="shape"/>
<feColorMatrix in="SourceAlpha" type="matrix" values="0 0 0 0 0 0 0 0 0 0 0 0 0 0 0 0 0 0 127 0" result="hardAlpha"/>
<feOffset dy="4"/>
<feGaussianBlur stdDeviation="2"/>
<feComposite in2="hardAlpha" operator="arithmetic" k2="-1" k3="1"/>
<feColorMatrix type="matrix" values="0 0 0 0 0 0 0 0 0 0 0 0 0 0 0 0 0 0 0.25 0"/>
<feBlend mode="normal" in2="shape" result="effect1_innerShadow_329_241"/>
</filter>
</defs>
</svg>
